<svg xmlns="http://www.w3.org/2000/svg" viewBox="0 0 1024 1024">
  <path transform="scale(1,-1) translate(0,-1024)" d="M640-10.667h-256c-231.68 0-330.667 98.987-330.667 330.667v256c0 231.68 98.987 330.667 330.667 330.667h256c231.68 0 330.667-98.987 330.667-330.667v-256c0-231.68-98.987-330.667-330.667-330.667zM384 842.667c-196.693 0-266.667-69.973-266.667-266.667v-256c0-196.693 69.973-266.667 266.667-266.667h256c196.693 0 266.667 69.973 266.667 266.667v256c0 196.693-69.973 266.667-266.667 266.667h-256zM312.751 309.76c-6.827 0-13.653 2.133-19.627 6.827-14.080 10.667-16.64 30.72-5.973 44.8l101.547 131.84c12.373 15.787 29.867 26.027 49.92 28.587 19.627 2.56 39.68-2.987 55.467-15.36l78.080-61.44c2.987-2.56 5.973-2.56 8.107-2.133 1.707 0 4.693 0.853 7.253 4.267l98.56 127.146c10.667 14.080 31.147 16.64 44.8 5.547 14.080-10.667 16.64-30.72 5.547-44.8l-98.56-127.146c-12.373-15.787-29.867-26.027-49.92-28.16-20.053-2.56-39.68 2.987-55.467 15.36l-78.080 61.44c-2.987 2.56-6.4 2.56-8.107 2.133-1.707 0-4.693-0.853-7.253-4.267l-101.546-131.84c-5.547-8.533-14.933-12.8-24.747-12.8z"/>
</svg>