<?xml version='1.0' encoding='utf-8'?>
<svg xmlns="http://www.w3.org/2000/svg" viewBox="53.33300000000003 117.33299999999912 917.3340000000009 917.3340000000009">
  <path transform="scale(1,-1) translate(0,-1024)" d="M640-10.667h-256c-231.68 0-330.667 98.987-330.667 330.667v256c0 231.68 98.987 330.667 330.667 330.667h256c231.68 0 330.667-98.987 330.667-330.667v-256c0-231.68-98.987-330.667-330.667-330.667zM384 842.667c-196.693 0-266.667-69.973-266.667-266.667v-256c0-196.693 69.973-266.667 266.667-266.667h256c196.693 0 266.667 69.973 266.667 266.667v256c0 196.693-69.973 266.667-266.667 266.667h-256zM458.227 265.378c-8.107 0-16.213 2.987-22.613 9.387-12.374 12.373-12.374 32.853 0 45.227l128 128-128 128.002c-12.374 12.373-12.374 32.853 0 45.227s32.853 12.373 45.227 0l150.613-150.615c12.373-12.373 12.373-32.853 0-45.227l-150.613-150.613c-6.4-6.4-14.507-9.387-22.613-9.387z" />
</svg>