<?xml version='1.0' encoding='utf-8'?>
<svg xmlns="http://www.w3.org/2000/svg" viewBox="117.35012500000022 234.77525000000014 789.2247499999999 789.2247499999999">
  <path transform="scale(1,-1) translate(0,-1024)" d="M770.948 519.684c-8.107 0-16.213 2.987-22.613 9.387l-236.373 236.372-236.372-236.372c-12.373-12.373-32.853-12.373-45.227 0-12.373 12.372-12.373 32.852 0 45.225l258.985 258.987c12.373 12.373 32.853 12.373 45.227 0l258.987-258.987c12.373-12.373 12.373-32.853 0-45.225-5.973-6.4-14.507-9.387-22.613-9.387zM512 53.338c-17.493 0-32 14.507-32 32v718.079c0 17.493 14.507 32 32 32s32-14.507 32-32v-718.079c0-17.493-14.507-32-32-32z" />
</svg>