<?xml version='1.0' encoding='utf-8'?>
<svg xmlns="http://www.w3.org/2000/svg" viewBox="117.52100000000002 234.659 789.341 789.341">
  <path transform="scale(1,-1) translate(0,-1024)" d="M384.403 53.325c-8.107 0-16.213 2.987-22.613 9.387l-213.76 213.76c-12.373 12.373-12.373 32.853 0 45.227s32.853 12.373 45.227 0l213.76-213.76c12.373-12.373 12.373-32.853 0-45.227-6.4-5.973-14.507-9.387-22.613-9.387zM384.417 53.333c-17.493 0-32 14.507-32 32v725.333c0 17.493 14.507 32 32 32s32-14.507 32-32v-725.333c0-17.493-14.507-32-32-32zM853.739 564.909c-8.107 0-16.213 2.987-22.613 9.387l-213.76 213.76c-12.373 12.373-12.373 32.853 0 45.227s32.853 12.373 45.227 0l213.76-213.76c12.373-12.373 12.373-32.853 0-45.227-6.4-6.4-14.507-9.387-22.613-9.387zM639.582 53.333c-17.493 0-32 14.507-32 32v725.333c0 17.493 14.507 32 32 32s32-14.507 32-32v-725.333c0-17.493-14.080-32-32-32z" />
</svg>