<?xml version='1.0' encoding='utf-8'?>
<svg xmlns="http://www.w3.org/2000/svg" viewBox="61.55612500000001 -2.137999999999977 900.4817500000003 900.4817500000003">
  <path transform="scale(1,-1) translate(0,-1024)" d="M366.090-2.138c-9.387 0-19.2 1.707-28.16 5.547-20.053 8.533-35.413 25.173-42.24 46.080l-18.773 56.32c-8.533 25.6-0.853 57.6 17.92 76.8l96.853 97.28c1.28 1.28 2.987 5.973 2.987 8.107v105.387l-194.56-84.053c-26.027-11.093-52.48-9.813-72.533 3.413s-32 37.12-32 64.853v55.040c0 41.813 29.867 86.613 67.84 101.548l230.827 99.84v121.173c0 51.627 36.265 110.933 82.345 134.827 22.187 11.093 47.787 11.093 69.547 0 46.507-23.893 82.773-82.773 82.773-134.4v-121.173l232.107-99.84c37.973-16.215 66.987-59.735 66.987-101.975v-55.040c0-28.16-11.52-51.627-32-64.853s-46.507-14.507-72.533-3.84l-194.56 84.053v-105.387c0-1.707 1.707-5.973 2.987-7.253l97.28-97.707c18.773-18.773 26.453-51.627 17.92-76.8l-18.773-56.32c-7.253-20.907-22.613-37.547-43.093-45.653-20.053-8.107-42.24-7.253-61.44 2.133-2.133 1.28-4.267 2.56-6.4 4.267l-99.413 83.627c-3.413 2.987-10.24 2.56-13.227 0l-99.412-83.627c-1.707-1.707-3.84-2.987-5.973-3.84-10.24-5.973-21.76-8.533-33.28-8.533zM407.904 463.356c9.813 0 19.198-2.56 27.305-8.107 14.933-9.813 23.467-26.453 23.467-46.080v-121.6c0-18.347-8.96-40.107-21.76-52.907l-96.852-97.28c-1.707-2.133-3.413-8.533-2.56-11.093l18.773-56.747c1.28-4.267 4.267-5.973 5.973-6.827 1.28-0.427 3.413-1.28 5.973-0.427l95.572 80.64c26.88 23.040 69.12 23.040 96 0l95.147-80.213c2.987-0.427 5.12 0 6.4 0.427 1.707 0.853 5.12 2.56 6.4 6.827l18.773 56.32c0.853 2.987-0.853 9.387-2.56 11.093l-96.853 97.28c-12.8 11.947-22.187 34.133-22.187 52.907v121.6c0 19.2 8.107 35.84 22.613 45.653s33.28 11.093 51.2 3.413l209.92-90.453c6.4-2.56 10.667-2.56 11.947-1.707s2.987 4.693 2.987 11.52v55.040c0 16.213-13.653 37.12-28.16 43.093l-238.080 102.828c-18.773 8.107-32 28.587-32 49.067v128c0 28.16-22.187 64.427-47.787 77.227-3.413 1.707-7.68 1.707-11.52 0-24.747-12.8-47.36-49.92-47.36-77.653v-128c0-20.053-13.227-40.96-32-49.067l-238.079-102.828c-14.933-5.973-28.587-26.88-28.587-42.667v-55.040c0-6.827 1.707-10.667 2.987-11.52s5.547-0.853 11.947 1.707l209.493 90.453c7.68 3.413 15.787 5.12 23.467 5.12z" />
</svg>