<?xml version='1.0' encoding='utf-8'?>
<svg xmlns="http://www.w3.org/2000/svg" viewBox="96.19631249810573 160.0 832.0 832.0">
  <path transform="scale(1,-1) translate(0,-1024)" d="M445.837 641.281c-8.107 0-16.218 2.985-22.617 9.385l-136.107 136.107-136.107-136.107c-12.373-12.373-32.853-12.373-45.227 0s-12.373 32.853 0 45.227l158.721 158.721c5.973 5.973 14.079 9.385 22.612 9.385s16.641-3.412 22.615-9.385l158.718-158.721c12.373-12.373 12.373-32.853 0-45.227-6.4-6.4-14.507-9.385-22.609-9.385zM287.167 32c-17.493 0-32 14.507-32 32v768c0 17.493 14.507 32 32 32s32-14.507 32-32v-768c0-17.493-14.507-32-32-32zM737.28 32.013c-8.533 0-16.64 3.409-22.613 9.382l-158.72 158.724c-12.373 12.373-12.373 32.853 0 45.227s32.853 12.373 45.227 0l136.107-136.107 136.102 136.107c12.373 12.373 32.858 12.373 45.231 0s12.373-32.853 0-45.227l-158.72-158.724c-5.973-5.973-14.507-9.382-22.613-9.382zM736.832 32c-17.493 0-32 14.507-32 32v768c0 17.493 14.507 32 32 32s32-14.507 32-32v-768c0-17.493-14.080-32-32-32z" />
</svg>