<?xml version='1.0' encoding='utf-8'?>
<svg xmlns="http://www.w3.org/2000/svg" viewBox="117.41725000000008 181.43525 789.2447500000001 789.2447500000001">
  <path transform="scale(1,-1) translate(0,-1024)" d="M408.297 157.009c-8.107 0-16.213 2.987-22.613 9.387l-258.987 258.987c-12.373 12.373-12.373 32.853 0 45.227l258.987 258.986c12.373 12.373 32.853 12.373 45.229 0 12.373-12.373 12.373-32.853 0-45.227l-236.375-236.372 236.375-236.373c12.373-12.373 12.373-32.853 0-45.227-5.975-6.4-14.509-9.387-22.615-9.387zM874.662 416h-718.079c-17.493 0-32 14.507-32 32s14.507 32 32 32h718.079c17.493 0 32-14.507 32-32s-14.507-32-32-32z" />
</svg>