<?xml version='1.0' encoding='utf-8'?>
<svg xmlns="http://www.w3.org/2000/svg" viewBox="117.29468750189409 181.3329999999999 789.3380000000001 789.3380000000001">
  <path transform="scale(1,-1) translate(0,-1024)" d="M511.962 53.329c-8.107 0-16.213 2.987-22.613 9.387l-258.985 258.987c-12.373 12.373-12.373 32.853 0 45.227s32.853 12.373 45.227 0l236.372-236.373 236.373 236.373c12.373 12.373 32.853 12.373 45.227 0s12.373-32.853 0-45.227l-258.987-258.987c-6.4-6.4-14.507-9.387-22.613-9.387zM512 60.587c-17.493 0-32 14.507-32 32v718.080c0 17.493 14.507 32 32 32s32-14.507 32-32v-718.080c0-17.493-14.507-32-32-32z" />
</svg>