<?xml version='1.0' encoding='utf-8'?>
<svg xmlns="http://www.w3.org/2000/svg" viewBox="10.332874996211672 74.74387499621173 1002.9342500075766 1002.9342500075766">
  <path transform="scale(1,-1) translate(0,-1024)" d="M190.707 440.742c-8.107 0-16.213 2.987-22.613 9.387l-51.627 51.627-51.627-51.627c-12.373-12.373-32.853-12.373-45.227 0s-12.373 32.853 0 45.227l74.24 74.239c12.373 12.373 32.853 12.373 45.227 0l74.24-74.239c12.373-12.373 12.373-32.853 0-45.227-5.973-6.4-14.507-9.387-22.613-9.387zM907.132 317.013c-8.107 0-16.213 2.987-22.613 9.387l-74.24 74.24c-12.373 12.373-12.373 32.853 0 45.227s32.853 12.373 45.227 0l51.627-51.627 51.627 51.627c12.373 12.373 32.853 12.373 45.227 0s12.373-32.853 0-45.227l-74.24-74.24c-5.973-5.973-14.507-9.387-22.613-9.387zM907.098 317.013c-17.493 0-32 14.507-32 32v98.987c0 200.107-162.987 363.094-363.093 363.094-110.509 0-213.762-49.493-283.309-136.107-11.093-13.653-31.147-15.787-44.8-5.12-13.653 11.093-16.213 31.146-5.12 44.8 81.493 101.973 203.093 160 333.229 160 235.52 0 427.093-191.574 427.093-427.093v-98.987c0-17.067-14.080-31.573-32-31.573zM512.009 20.911c-235.518 0-427.092 191.573-427.092 427.093v98.985c0 17.493 14.507 32 32 32s32-14.507 32-32v-98.985c0-200.107 162.987-363.093 363.092-363.093 110.507 0 213.76 49.493 283.307 136.107 11.093 13.653 31.147 16.209 44.8 5.116s16.213-31.142 5.12-44.796c-81.493-101.973-203.093-160.427-333.227-160.427zM570.88 416h-186.88c-17.493 0-32 14.507-32 32v149.333c0 17.493 14.507 32 32 32h186.88c56.747 0 106.667-49.92 106.667-106.667 0-58.88-48.213-106.667-106.667-106.667zM416 480h154.453c23.467 0 42.667 19.2 42.667 42.667 0 19.2-19.2 42.667-42.667 42.667h-154.453v-85.333zM597.333 266.667h-213.333c-17.493 0-32 14.507-32 32v149.333c0 17.493 14.507 32 32 32h213.333c64.853 0 117.333-47.787 117.333-106.667s-52.48-106.667-117.333-106.667zM416 330.667h181.333c29.44 0 53.333 19.2 53.333 42.667s-23.893 42.667-53.333 42.667h-181.333v-85.333zM503.501 192c-17.493 0-32 14.507-32 32v74.667c0 17.493 14.507 32 32 32s32-14.507 32-32v-74.667c0-17.493-14.507-32-32-32zM503.501 565.333c-17.493 0-32 14.507-32 32v74.667c0 17.493 14.507 32 32 32s32-14.507 32-32v-74.667c0-17.493-14.507-32-32-32z" />
</svg>