<?xml version='1.0' encoding='utf-8'?>
<svg xmlns="http://www.w3.org/2000/svg" viewBox="10.666999999999973 73.1684999999996 1003.102 1003.102">
  <path transform="scale(1,-1) translate(0,-1024)" d="M682.675-52.053c-11.52 0-22.187 6.4-27.733 16.213s-5.547 22.187 0.427 32l44.8 74.667c8.96 15.36 28.587 20.053 43.947 11.093s20.053-28.587 11.093-43.947l-11.52-19.2c117.76 27.733 206.080 133.547 206.080 259.84 0 17.493 14.507 32 32 32s32-14.507 32-32c-0.427-182.187-148.907-330.667-331.093-330.667zM42.667 587.948c-17.493 0-32 14.507-32 32 0 182.187 148.48 330.667 330.667 330.667 11.52 0 22.187-6.4 27.733-16.214s5.547-22.187-0.427-32l-44.8-74.667c-8.96-15.36-28.587-20.054-43.947-11.094s-20.053 28.585-11.093 43.945l11.52 19.201c-117.76-27.733-206.080-133.545-206.080-259.839 0.427-17.493-14.080-32-31.573-32zM402.394 273.916h-119.894c-17.493 0-32 14.507-32 32v96c0 17.493 14.507 32 32 32h119.894c42.667 0 80.213-37.547 80.213-80.213 0-43.52-36.267-79.787-80.213-79.787zM314.5 337.916h87.894c8.96 0 16.213 7.253 16.213 16.213 0 6.4-7.253 16.213-16.213 16.213h-87.894v-32.427zM419.387 177.916h-137.387c-17.493 0-32 14.507-32 32v96c0 17.493 14.507 32 32 32h137.387c47.788 0 87.041-35.84 87.041-80.213s-38.827-79.787-87.041-79.787zM314.426 241.916h105.387c13.655 0 23.041 8.533 23.041 16.213s-9.387 16.213-23.041 16.213h-105.387v-32.427zM359.25 130.142c-17.493 0-32 14.507-32 32v48.213c0 17.493 14.507 32 32 32s32-14.507 32-32v-48.213c0-17.92-14.507-32-32-32zM359.25 370.351c-17.493 0-32 14.507-32 32v48.213c0 17.493 14.507 32 32 32s32-14.507 32-32v-48.213c0-17.92-14.507-32-32-32zM369.92 10.671c-162.987 0-295.253 132.689-295.253 295.249s132.693 295.257 295.253 295.257c7.68 0 14.507-0.428 22.187-0.854 144.64-11.093 261.547-127.999 272.213-271.785 0.427-9.387 0.853-15.791 0.853-22.618 0.427-162.56-132.267-295.249-295.253-295.249zM369.92 537.602c-127.573 0-231.253-103.677-231.253-231.251s103.68-231.253 231.253-231.253c127.573 0 231.68 103.68 231.68 231.253 0 5.547-0.427 11.093-0.853 16.64-8.533 114.347-100.267 205.653-212.907 214.186-5.547 0-11.52 0.425-17.92 0.425zM654.089 294.4h-20.907c-16.64 0-30.72 12.8-32 29.44-8.533 113.067-99.84 204.373-212.909 212.908-16.64 1.28-29.44 15.36-29.44 32v20.906c0 162.987 132.695 295.252 295.682 295.252s295.253-132.692 295.253-295.252c0-162.56-133.12-295.254-295.68-295.254zM422.407 596.906c120.322-21.76 216.748-117.76 238.508-238.506 124.587 3.84 224.427 106.24 224.427 231.254 0 127.573-103.68 231.252-231.253 231.252-125.44 0.427-227.842-99.413-231.682-224z" />
</svg>