<?xml version='1.0' encoding='utf-8'?>
<svg xmlns="http://www.w3.org/2000/svg" viewBox="53.12068759932322 117.33300000000003 917.334 917.334">
  <path transform="scale(1,-1) translate(0,-1024)" d="M653.227 319.147c-24.747 0-51.627 8.107-78.507 24.747l-56.32 34.133c-2.56 1.707-10.24 1.707-12.8 0l-56.32-34.133c-46.080-28.16-91.307-32.427-127.573-11.947-35.413 20.053-55.040 60.16-55.040 112.64v300.8c0 104.107 56.747 161.28 160 161.28h170.667c103.253 0 160-57.173 160-161.28v-300.8c0-52.907-19.627-93.013-55.040-112.64-14.933-8.533-31.573-12.8-49.067-12.8zM512 443.307c14.080 0 28.16-3.413 39.68-10.24l56.32-34.133c25.173-15.36 48.213-19.2 62.72-11.093 14.080 8.107 22.187 29.013 22.187 57.173v300.373c0 68.267-28.587 97.28-96 97.28h-170.667c-67.413 0-96-29.013-96-97.28v-300.8c0-28.16 8.107-49.067 22.187-57.173 14.507-8.107 37.547-4.267 62.72 11.093l56.32 34.133c12.373 7.253 26.453 10.667 40.533 10.667zM640-10.667h-256c-231.68 0-330.667 99.84-330.667 333.653v129.28c0 198.826 71.68 299.52 232.107 326.4 17.067 2.987 33.707-8.96 36.693-26.453s-8.96-33.707-26.453-36.693c-128.427-21.333-178.773-95.147-178.773-263.253v-129.28c0-196.693 72.107-269.653 266.667-269.653h256c194.56 0 266.667 72.96 266.667 269.653v129.28c0 170.666-52.053 244.48-186.027 264.533-17.493 2.56-29.44 18.773-26.88 36.267s18.773 29.44 36.267 26.88c166.4-24.747 240.64-125.44 240.64-327.68v-129.28c0.427-233.813-98.56-333.653-330.24-333.653z" />
</svg>