<?xml version='1.0' encoding='utf-8'?>
<svg xmlns="http://www.w3.org/2000/svg" viewBox="53.336999999999875 106.6719999999998 917.3280000000002 917.3280000000002">
  <path transform="scale(1,-1) translate(0,-1024)" d="M640 407.458h-298.667c-17.493 0-32 14.507-32 32s14.507 32 32 32h298.667c17.493 0 32-14.507 32-32s-14.507-32-32-32zM528.213 236.791h-186.88c-17.493 0-32 14.507-32 32s14.507 32 32 32h186.88c17.493 0 32-14.507 32-32s-14.507-32-32-32zM597.333 672h-170.667c-40.96 0-117.333 0-117.333 117.333s76.373 117.333 117.333 117.333h170.667c40.96 0 117.333 0 117.333-117.333 0-40.96 0-117.333-117.333-117.333zM426.667 842.667c-42.24 0-53.333 0-53.333-53.333s11.093-53.333 53.333-53.333h170.667c53.333 0 53.333 11.093 53.333 53.333 0 53.333-11.093 53.333-53.333 53.333h-170.667zM640-10.662h-256c-239.787 0-288 110.080-288 288v255.999c0 194.56 70.4 277.76 243.627 286.72 17.067 0.853 32.853-12.373 33.707-30.293s-12.8-32.427-30.293-33.28c-121.173-6.827-183.040-43.093-183.040-223.147v-255.999c0-157.867 31.147-224 224-224h256c192.853 0 224 66.133 224 224v255.999c0 180.053-61.867 216.32-183.040 223.147-17.493 0.853-31.147 16.213-30.293 33.707s16.213 31.147 33.707 30.293c173.227-9.387 243.627-92.587 243.627-286.72v-255.999c0-178.347-48.213-288.427-288-288.427z" />
</svg>