<?xml version='1.0' encoding='utf-8'?>
<svg xmlns="http://www.w3.org/2000/svg" viewBox="53.335499999999854 106.67099999999982 917.3290000000002 917.3290000000002">
  <path transform="scale(1,-1) translate(0,-1024)" d="M512-10.662c-170.667 0-309.333 122.453-309.333 273.067v157.867c0 17.493 14.507 32 32 32s32-14.507 32-32c0-111.787 105.387-196.267 245.333-196.267s245.333 84.48 245.333 196.267c0 17.493 14.507 32 32 32s32-14.507 32-32v-157.867c0-150.613-138.667-273.067-309.333-273.067zM266.667 257.711c2.987-113.067 111.787-204.373 245.333-204.373s242.347 91.307 245.333 204.373c-55.467-60.16-143.36-97.707-245.333-97.707s-189.44 37.547-245.333 97.707zM512 373.333c-117.76 0-223.574 52.907-275.2 138.24-22.187 36.267-34.133 78.507-34.133 122.027 0 73.387 32.853 142.507 92.16 194.56 58.027 50.773 135.253 78.507 217.173 78.507s158.72-27.733 217.173-78.080c59.307-52.48 92.16-121.6 92.16-194.987 0-43.52-11.947-85.333-34.133-122.027-51.627-85.333-157.44-138.24-275.2-138.24zM512 842.667c-66.56 0-128.853-22.187-175.36-63.147-45.227-39.253-69.974-91.307-69.974-145.92 0-32 8.533-61.867 24.746-88.747 40.533-66.56 125.014-107.52 220.587-107.52s180.053 41.387 220.587 107.52c16.64 26.88 24.747 56.747 24.747 88.747 0 54.613-24.747 106.667-70.4 146.773-46.507 40.107-108.373 62.293-174.933 62.293zM512 160c-176.213 0-309.333 111.787-309.333 260.267v213.333c0 150.613 138.667 273.067 309.333 273.067 81.92 0 158.72-27.733 217.173-78.080 59.307-52.48 92.16-121.6 92.16-194.987v-213.333c0-148.48-133.12-260.267-309.333-260.267zM512 842.667c-135.253 0-245.333-93.867-245.333-209.067v-213.333c0-111.787 105.387-196.267 245.333-196.267s245.333 84.48 245.333 196.267v213.333c0 54.613-24.747 106.667-70.4 146.773-46.507 40.107-108.373 62.293-174.933 62.293z" />
</svg>