<?xml version='1.0' encoding='utf-8'?>
<svg xmlns="http://www.w3.org/2000/svg" viewBox="53.10799999999989 107.53800000000001 916.462 916.462">
  <path transform="scale(1,-1) translate(0,-1024)" d="M462.507 382.285h-64c-49.067 0-88.747 40.96-88.747 91.733 0 17.493 14.507 32 32 32s32-14.507 32-32c0-15.36 11.093-27.733 24.747-27.733h64c9.813 0 17.493 8.96 17.493 20.053 0 14.933-2.56 15.787-12.373 19.2l-102.827 35.84c-37.12 12.8-55.467 38.827-55.467 79.36 0 46.080 36.693 84.053 81.493 84.053h64c49.067 0 88.747-40.96 88.747-91.733 0-17.493-14.507-32-32-32s-32 14.507-32 32c0 15.36-11.093 27.733-24.747 27.733h-64c-9.813 0-17.493-8.96-17.493-20.053 0-14.933 2.56-15.787 12.373-19.2l102.827-35.84c37.12-13.227 55.040-39.253 55.040-79.36 0.427-46.507-36.267-84.053-81.067-84.053zM426.667 348.156c-17.493 0-32 14.507-32 32v31.573c0 17.493 14.507 32 32 32s32-14.507 32-32v-31.573c0-17.92-14.507-32-32-32zM426.667 621.22c-17.493 0-32 14.507-32 32v33.28c0 17.493 14.507 32 32 32s32-14.507 32-32v-33.28c0-17.493-14.507-32-32-32zM426.24 161.271c-205.653 0-372.907 167.253-372.907 372.905s167.253 372.907 372.907 372.907 372.907-167.253 372.907-372.907c0-205.652-167.68-372.905-372.907-372.905zM426.24 842.657c-170.24 0-308.907-138.667-308.907-308.907s138.667-308.479 308.907-308.479 308.907 138.667 308.907 308.905c0 170.24-138.667 308.48-308.907 308.48zM726.144-9.378c-78.933 0-153.173 38.4-198.827 103.253-10.24 14.507-6.827 34.56 7.68 44.8s34.56 6.827 44.8-7.68c33.707-47.787 88.32-75.947 146.347-75.947 98.987 0 179.2 80.213 179.2 179.2 0 57.6-28.16 112.213-75.093 145.92-14.507 10.24-17.493 30.293-7.253 44.8s30.293 17.493 44.8 7.253c63.573-45.653 101.547-119.467 101.547-197.973 0-134.827-108.8-243.627-243.2-243.627z" />
</svg>