<?xml version='1.0' encoding='utf-8'?>
<svg xmlns="http://www.w3.org/2000/svg" viewBox="74.60237499999994 -10.66700000000003 917.3340000000001 917.3340000000001">
  <path transform="scale(1,-1) translate(0,-1024)" d="M341.333 714.667c-17.493 0-32 14.507-32 32v128c0 17.493 14.507 32 32 32s32-14.507 32-32v-128c0-17.493-14.507-32-32-32zM682.667 714.667c-17.493 0-32 14.507-32 32v128c0 17.493 14.507 32 32 32s32-14.507 32-32v-128c0-17.493-14.507-32-32-32zM776.533 14.933c-93.013 0-168.533 75.52-168.533 168.533s75.52 168.533 168.533 168.533c93.013 0 168.533-75.52 168.533-168.533s-75.52-168.533-168.533-168.533zM776.533 288c-57.6 0-104.533-46.933-104.533-104.533s46.933-104.533 104.533-104.533c57.6 0 104.533 46.933 104.533 104.533s-46.933 104.533-104.533 104.533zM938.645-10.662c-8.107 0-16.213 2.987-22.613 9.387l-42.667 42.667c-12.373 12.373-12.373 32.853 0 45.227s32.853 12.373 45.227 0l42.667-42.667c12.373-12.373 12.373-32.853 0-45.227-6.4-6.4-14.507-9.387-22.613-9.387zM362.667 341.338c-5.547 0-11.093 1.28-16.213 3.413-5.547 2.133-10.24 5.12-14.080 8.96-1.707 2.133-3.84 4.267-5.12 6.4-1.707 2.56-2.987 5.12-3.84 7.68-1.28 2.56-2.133 5.12-2.56 7.68-0.427 2.987-0.853 5.973-0.853 8.533 0 11.093 4.693 22.187 12.373 30.293 3.84 3.84 8.534 6.827 14.080 8.96 15.36 6.827 34.56 2.987 46.507-8.96 7.68-8.107 12.373-19.2 12.373-30.293 0-2.56-0.427-5.547-0.853-8.533-0.427-2.56-1.28-5.12-2.56-7.68-0.853-2.56-2.133-5.12-3.84-7.68-1.707-2.133-3.413-4.267-5.12-6.4-8.107-7.68-19.2-12.373-30.294-12.373zM512 341.338c-11.093 0-22.187 4.693-30.293 12.373-7.68 8.107-12.373 18.773-12.373 30.293 0 5.547 1.28 11.093 3.413 16.213s5.12 9.809 8.96 14.076c15.787 15.787 44.373 15.787 60.587 0 7.68-8.107 12.373-19.196 12.373-30.289 0-2.56-0.427-5.551-0.853-8.538-0.427-2.56-1.28-5.116-2.56-7.676-0.853-2.56-2.133-5.12-3.84-7.68-1.707-2.133-3.413-4.267-5.12-6.4-8.107-7.68-19.2-12.373-30.293-12.373zM362.667 192.004c-11.093 0-22.187 4.693-30.294 12.373-7.68 8.107-12.373 19.2-12.373 30.293 0 5.547 1.28 11.093 3.413 16.213 2.133 5.547 5.12 10.236 8.96 14.076 15.787 15.787 44.801 15.787 60.588 0 7.68-8.107 12.373-19.196 12.373-30.289s-4.693-22.187-12.373-30.293c-8.107-7.68-19.2-12.373-30.294-12.373zM874.667 540.167h-725.333c-17.493 0-32 14.507-32 32s14.507 32 32 32h725.333c17.493 0 32-14.507 32-32s-14.507-32-32-32zM570.453-10.667h-229.12c-155.733 0-245.333 89.6-245.333 245.333v362.667c0 155.733 89.6 245.333 245.333 245.333h341.333c155.733 0 245.333-89.6 245.333-245.333v-192c0-17.493-14.507-32-32-32s-32 14.507-32 32v192c0 122.027-59.307 181.333-181.333 181.333h-341.333c-122.027 0-181.333-59.307-181.333-181.333v-362.667c0-122.027 59.307-181.333 181.333-181.333h229.12c17.493 0 32-14.507 32-32s-14.507-32-32-32z" />
</svg>