<?xml version='1.0' encoding='utf-8'?>
<svg xmlns="http://www.w3.org/2000/svg" viewBox="53.334 106.77387499621159 917.2261250037884 917.2261250037884">
  <path transform="scale(1,-1) translate(0,-1024)" d="M618.667 565.333h-533.333c-17.493 0-32 14.507-32 32s14.507 32 32 32h533.333c17.493 0 32-14.507 32-32s-14.507-32-32-32zM341.333 224h-85.333c-17.493 0-32 14.507-32 32s14.507 32 32 32h85.333c17.493 0 32-14.507 32-32s-14.507-32-32-32zM618.667 224h-170.667c-17.493 0-32 14.507-32 32s14.507 32 32 32h170.667c17.493 0 32-14.507 32-32s-14.507-32-32-32zM749.227 53.333h-474.453c-169.813 0-221.44 51.2-221.44 219.307v350.72c0 168.107 51.627 219.307 221.44 219.307h343.893c17.493 0 32-14.507 32-32s-14.507-32-32-32h-343.893c-133.973 0-157.44-23.040-157.44-155.307v-350.293c0-132.267 23.467-155.307 157.44-155.307h474.027c133.973 0 157.44 23.040 157.44 155.307v88.747c0 17.493 14.507 32 32 32s32-14.507 32-32v-88.747c0.427-168.533-51.2-219.733-221.013-219.733zM853.333 522.667c-4.267 0-8.107 0.853-12.373 2.56-11.947 5.12-19.627 16.64-19.627 29.44v256c0 17.493 14.507 32 32 32s32-14.507 32-32v-178.773l30.72 30.72c12.373 12.373 32.853 12.373 45.227 0s12.373-32.853 0-45.227l-85.333-85.333c-5.973-5.973-14.080-9.387-22.613-9.387zM853.312 522.671c-8.107 0-16.213 2.987-22.613 9.387l-85.333 85.332c-12.373 12.373-12.373 32.853 0 45.227s32.853 12.373 45.227 0l85.333-85.333c12.373-12.373 12.373-32.853 0-45.225-6.4-6.4-14.507-9.387-22.613-9.387z" />
</svg>