<?xml version='1.0' encoding='utf-8'?>
<svg xmlns="http://www.w3.org/2000/svg" viewBox="53.333999999999946 106.66699999999992 917.3330000000001 917.3330000000001">
  <path transform="scale(1,-1) translate(0,-1024)" d="M810.667 389.978h-725.333c-17.493 0-32 14.507-32 32s14.507 32 32 32h725.333c17.493 0 32-14.507 32-32s-14.507-32-32-32zM649.387 32.009h-402.772c-146.347 0-193.281 46.507-193.281 191.147v298.24c0 114.773 26.028 182.613 158.294 190.293 11.093 0.427 22.614 0.854 34.987 0.854h402.772c146.347 0 193.28-46.507 193.28-191.147v-305.067c-1.707-139.52-48.64-184.32-193.28-184.32zM246.615 648.542c-11.52 0-22.187-0.427-32-0.854-76.373-4.693-97.281-20.906-97.281-126.293v-298.24c0-109.227 17.921-127.147 129.281-127.147h402.772c110.080 0 128 17.067 129.28 120.747v304.64c0 109.227-17.92 127.147-129.28 127.147h-402.772zM810.667 184.32c-8.107 0-16.213 2.987-21.76 8.533-6.4 5.973-10.24 14.507-10.24 23.467v305.067c0 109.227-17.92 127.147-129.28 127.147h-402.772c-11.52 0-22.187-0.427-32-0.853-8.533-0.427-17.069 2.987-23.469 8.96s-9.812 14.507-9.812 23.467c1.707 139.093 48.641 183.893 193.281 183.893h402.772c146.347 0 193.28-46.507 193.28-191.147v-298.24c0-114.773-26.027-182.613-158.293-190.293-0.427 0-1.28 0-1.707 0zM246.615 712.533h402.772c146.347 0 193.28-46.507 193.28-191.147v-269.653c49.493 8.96 64 34.56 64 122.88v298.24c0 109.227-17.92 127.147-129.28 127.147h-402.772c-97.28 0-122.453-13.227-128-87.467zM296.972 168.102h-73.388c-17.493 0-32 14.507-32 32s14.507 32 32 32h73.388c17.493 0 32-14.507 32-32s-14.080-32-32-32zM535.441 168.102h-146.774c-17.493 0-32 14.507-32 32s14.507 32 32 32h146.774c17.493 0 32-14.507 32-32s-14.080-32-32-32z" />
</svg>