<?xml version='1.0' encoding='utf-8'?>
<svg xmlns="http://www.w3.org/2000/svg" viewBox="54.499999999999886 118.49999999999966 915.4240000000007 915.4240000000007">
  <path transform="scale(1,-1) translate(0,-1024)" d="M512.213-9.924c-252.488 0-457.713 205.222-457.713 457.711s205.226 457.713 457.713 457.713c252.489 0 457.711-205.226 457.711-457.713s-205.649-457.711-457.711-457.711zM512.213 841.633c-217.148 0-393.846-176.698-393.846-393.846s176.698-393.847 393.846-393.847c217.148 0 393.847 176.7 393.847 393.847s-176.7 393.846-393.847 393.846zM610.116 407.33c-8.516 0-16.606 3.405-22.566 9.365l-348.289 349.14c-12.347 12.347-12.347 32.785 0 45.132s32.785 12.348 45.133 0l294.214-294.638 0.427 116.662c0 17.457 14.477 31.933 31.932 31.933 17.459 1.277 31.936-14.476 31.936-31.933l-0.427-193.731c0-12.774-7.663-24.695-19.588-29.376-4.258-1.707-8.512-2.556-12.77-2.556zM762.155 75.661c-8.090 0-16.179 2.982-22.566 9.365l-294.212 294.643-0.427-116.663c0-17.459-14.477-31.936-31.933-31.936s-31.933 14.477-31.933 31.936l0.426 193.728c0 12.774 7.664 24.695 19.586 29.38 11.922 5.107 25.547 2.129 34.916-6.814l348.288-349.141c12.348-12.348 12.348-32.785 0-45.133-5.538-6.383-14.054-9.365-22.144-9.365z" />
</svg>