<?xml version='1.0' encoding='utf-8'?>
<svg xmlns="http://www.w3.org/2000/svg" viewBox="53.33299999999997 106.66599999999994 917.3340000000001 917.3340000000001">
  <path transform="scale(1,-1) translate(0,-1024)" d="M277.333-10.667c-17.493 0-32 14.507-32 32v298.667c0 17.493 14.507 32 32 32s32-14.507 32-32v-298.667c0-17.493-14.507-32-32-32zM277.333 714.667c-17.493 0-32 14.507-32 32v128c0 17.493 14.507 32 32 32s32-14.507 32-32v-128c0-17.493-14.507-32-32-32zM746.667-10.667c-17.493 0-32 14.507-32 32v128c0 17.493 14.507 32 32 32s32-14.507 32-32v-128c0-17.493-14.507-32-32-32zM746.667 544c-17.493 0-32 14.507-32 32v298.667c0 17.493 14.507 32 32 32s32-14.507 32-32v-298.667c0-17.493-14.507-32-32-32zM320 288h-85.333c-73.387 0-117.333 43.947-117.333 117.333v256c0 73.387 43.947 117.333 117.333 117.333h85.333c73.387 0 117.333-43.947 117.333-117.333v-256c0-73.387-43.947-117.333-117.333-117.333zM234.667 714.667c-37.973 0-53.333-15.36-53.333-53.333v-256c0-37.973 15.36-53.333 53.333-53.333h85.333c37.973 0 53.333 15.36 53.333 53.333v256c0 37.973-15.36 53.333-53.333 53.333h-85.333zM789.333 117.333h-85.333c-73.387 0-117.333 43.947-117.333 117.333v256c0 73.387 43.947 117.333 117.333 117.333h85.333c73.387 0 117.333-43.947 117.333-117.333v-256c0-73.387-43.947-117.333-117.333-117.333zM704 544c-37.973 0-53.333-15.36-53.333-53.333v-256c0-37.973 15.36-53.333 53.333-53.333h85.333c37.973 0 53.333 15.36 53.333 53.333v256c0 37.973-15.36 53.333-53.333 53.333h-85.333z" />
</svg>