<?xml version='1.0' encoding='utf-8'?>
<svg xmlns="http://www.w3.org/2000/svg" viewBox="53.33299999999997 95.99999999999989 960.0 960.0">
  <path transform="scale(1,-1) translate(0,-1024)" d="M512 200.102h-426.667c-17.493 0-32 14.507-32 32s14.507 32 32 32h426.667c17.493 0 32-14.507 32-32 0-17.92-14.507-32-32-32zM417.271-10.667h-236.802c-93.44 0-126.719 32.853-126.719 125.867v174.933c0 93.013 33.279 125.867 126.719 125.867h236.802c93.44 0 126.72-32.853 126.72-125.867v-175.36c0-92.587-33.28-125.44-126.72-125.44zM180.042 352c-58.027 0-62.719-4.693-62.719-61.867v-175.36c0-57.173 4.692-61.867 62.719-61.867h236.802c58.028 0 62.717 4.693 62.717 61.867v175.36c0 57.173-4.689 61.867-62.717 61.867h-236.802zM640.009-10.667c-11.52 0-22.187 6.4-27.733 16.213-5.547 10.24-5.547 22.187 0.427 32.427l44.8 74.667c8.96 14.933 28.587 20.053 43.947 11.093s20.053-28.587 11.093-43.947l-11.52-19.2c117.76 27.733 206.080 133.547 206.080 259.84 0 17.493 14.507 32 32 32s32-14.507 32-32c-0.427-182.613-148.907-331.093-331.093-331.093zM85.333 544c-17.493 0-32 14.507-32 32 0 182.187 148.48 330.667 330.667 330.667 11.52 0 22.188-6.4 27.734-16.213 5.547-10.24 5.546-22.187-0.427-32.427l-44.799-74.667c-8.96-14.933-28.588-20.053-43.948-11.093s-20.054 28.587-11.094 43.947l11.521 19.2c-117.76-27.733-206.081-133.547-206.081-259.84 0.427-17.067-14.080-31.573-31.573-31.573zM789.333 458.667c-123.307 0-224 100.267-224 224s100.267 224 224 224c123.733 0 224-100.267 224-224s-100.693-224-224-224zM789.333 842.667c-88.32 0-160-71.68-160-160s71.68-160 160-160c88.32 0 160 71.68 160 160s-71.68 160-160 160z" />
</svg>