<?xml version='1.0' encoding='utf-8'?>
<svg xmlns="http://www.w3.org/2000/svg" viewBox="53.33199999999988 117.33299999999997 917.3350000000003 917.3350000000003">
  <path transform="scale(1,-1) translate(0,-1024)" d="M320 768h-10.667v106.667c0 17.493-14.507 32-32 32s-32-14.507-32-32v-106.667h-10.667c-67.84 0-106.667-38.827-106.667-106.667v-256c0-67.84 38.827-106.667 106.667-106.667h10.667v-277.333c0-17.493 14.507-32 32-32s32 14.507 32 32v277.333h10.667c67.84 0 106.667 38.827 106.667 106.667v256c0 67.84-38.827 106.667-106.667 106.667zM789.333 597.333h-10.667v277.333c0 17.493-14.507 32-32 32s-32-14.507-32-32v-277.333h-10.667c-67.84 0-106.667-38.827-106.667-106.667v-256c0-67.84 38.827-106.667 106.667-106.667h10.667v-106.667c0-17.493 14.507-32 32-32s32 14.507 32 32v106.667h10.667c67.84 0 106.667 38.827 106.667 106.667v256c0 67.84-38.827 106.667-106.667 106.667z" />
</svg>