<?xml version='1.0' encoding='utf-8'?>
<svg xmlns="http://www.w3.org/2000/svg" viewBox="74.0962801672801 105.38199999999995 918.618 918.618">
  <path transform="scale(1,-1) translate(0,-1024)" d="M341.333 714.667c-17.493 0-32 14.507-32 32v128c0 17.493 14.507 32 32 32s32-14.507 32-32v-128c0-17.493-14.507-32-32-32zM682.667 714.667c-17.493 0-32 14.507-32 32v128c0 17.493 14.507 32 32 32s32-14.507 32-32v-128c0-17.493-14.507-32-32-32zM362.667 341.338c-5.547 0-11.093 1.28-16.213 3.413-5.547 2.133-9.813 5.12-14.080 8.96-7.68 8.107-12.374 19.2-12.374 30.293s4.694 22.187 12.374 30.293c4.267 3.84 8.96 6.827 14.080 8.96 10.24 4.267 22.187 4.267 32.427 0 5.12-2.133 9.813-5.12 14.080-8.96 1.707-2.133 3.84-4.267 5.12-6.4 1.707-2.56 2.988-5.12 3.841-7.68 1.28-2.56 2.133-5.12 2.56-7.68 0.427-2.987 0.853-5.973 0.853-8.533 0-11.093-4.694-22.187-12.374-30.293-4.267-3.84-8.96-6.827-14.080-8.96s-10.667-3.413-16.213-3.413zM512 341.338c-5.547 0-11.093 1.276-16.213 3.409-5.547 2.133-9.813 5.124-14.080 8.964-7.68 8.107-12.373 19.2-12.373 30.293 0 2.56 0.427 5.547 0.853 8.533 0.427 2.56 1.28 5.12 2.56 7.68 0.853 2.56 2.133 5.12 3.84 7.68 1.707 2.133 3.413 4.262 5.12 6.396 15.787 15.787 44.373 15.787 60.587 0 1.707-2.133 3.413-4.262 5.12-6.396 1.707-2.56 2.987-5.12 3.84-7.68 1.28-2.56 2.133-5.12 2.56-7.68 0.427-2.987 0.853-5.973 0.853-8.533 0-11.093-4.693-22.187-12.373-30.293-8.107-7.68-18.773-12.373-30.293-12.373zM362.667 192.004c-5.547 0-11.093 1.28-16.213 3.413s-9.813 5.12-14.080 8.96c-7.68 8.107-12.374 19.2-12.374 30.293 0 2.56 0.426 5.547 0.853 8.107 0.427 2.987 1.28 5.547 2.56 8.107 0.853 2.56 2.134 5.12 3.841 7.68 1.28 2.133 3.413 4.267 5.12 6.4 4.267 3.84 8.96 6.827 14.080 8.96 10.24 4.267 22.187 4.267 32.427 0 5.12-2.133 9.813-5.12 14.080-8.96 1.707-2.133 3.84-4.267 5.12-6.4 1.707-2.56 2.988-5.12 3.841-7.68 1.28-2.56 2.133-5.12 2.56-8.107 0.427-2.56 0.853-5.547 0.853-8.107 0-11.093-4.694-22.187-12.374-30.293-4.267-3.84-8.96-6.827-14.080-8.96s-10.667-3.413-16.213-3.413zM874.667 540.167h-725.333c-17.493 0-32 14.507-32 32s14.507 32 32 32h725.333c17.493 0 32-14.507 32-32s-14.507-32-32-32zM674.97-11.951c-16.213 0-31.573 5.973-42.667 17.067-13.227 13.227-19.2 32.427-16.213 52.48l8.107 57.6c2.133 14.933 11.093 32.853 21.76 43.52l151.040 151.040c20.48 20.48 40.533 31.147 62.293 33.28 26.88 2.56 52.907-8.533 77.653-33.28 26.027-26.027 61.013-78.933 0-139.947l-151.040-151.040c-10.667-10.667-28.587-19.627-43.52-21.76l-57.604-8.107c-3.413-0.427-6.396-0.853-9.809-0.853zM866.543 279.462c-0.427 0-0.853 0-1.28 0-5.973-0.427-14.080-5.973-23.040-14.933l-151.040-151.040c-1.28-1.28-3.413-5.547-3.413-7.253l-7.68-53.333 53.333 7.68c1.707 0.427 5.969 2.56 7.249 3.84l151.044 151.040c18.773 18.773 21.333 28.16 0 49.493-6.827 6.4-16.64 14.507-25.173 14.507zM892.612 138.671c-2.987 0-5.973 0.427-8.533 1.28-56.32 15.787-101.12 60.587-116.907 116.907-4.693 17.067 5.12 34.56 22.187 39.68 17.067 4.693 34.56-5.12 39.68-22.187 9.813-34.987 37.547-62.72 72.533-72.533 17.067-4.693 26.88-22.613 22.187-39.68-4.267-14.080-17.067-23.467-31.147-23.467zM512-10.667h-170.667c-155.733 0-245.333 89.6-245.333 245.333v362.667c0 155.733 89.6 245.333 245.333 245.333h341.333c155.733 0 245.333-89.6 245.333-245.333v-149.333c0-17.493-14.507-32-32-32s-32 14.507-32 32v149.333c0 122.027-59.307 181.333-181.333 181.333h-341.333c-122.027 0-181.333-59.307-181.333-181.333v-362.667c0-122.027 59.307-181.333 181.333-181.333h170.667c17.493 0 32-14.507 32-32s-14.507-32-32-32z" />
</svg>