<?xml version='1.0' encoding='utf-8'?>
<svg xmlns="http://www.w3.org/2000/svg" viewBox="53.33400000000012 117.43802056963915 917.333 917.333">
  <path transform="scale(1,-1) translate(0,-1024)" d="M167.643 250.449c-8.107 0-16.213 2.987-22.613 9.387-12.373 12.373-12.373 32.853 0 45.227l509.865 509.866c12.373 12.373 32.853 12.373 45.227 0s12.373-32.853 0-45.227l-509.865-510.292c-5.973-5.973-14.507-8.96-22.613-8.96zM473.562 148.053c-8.107 0-16.213 2.987-22.613 9.387-12.373 12.373-12.373 32.853 0 45.227l51.2 51.2c12.373 12.373 32.853 12.373 45.227 0s12.373-32.853 0-45.227l-51.2-51.2c-5.973-5.973-14.080-9.387-22.613-9.387zM588.395 262.822c-8.107 0-16.213 2.987-22.613 9.387-12.373 12.373-12.373 32.853 0 45.227l101.973 101.973c12.373 12.373 32.853 12.373 45.227 0s12.373-32.853 0-45.227l-101.973-101.973c-5.973-5.973-14.507-9.387-22.613-9.387zM473.638-10.662c-41.813 0-83.627 25.6-134.4 76.373l-209.493 209.493c-101.973 101.973-101.547 167.68 1.28 270.506l283.307 283.307c102.827 102.826 168.534 103.253 270.507 1.28l209.493-209.493c101.973-101.973 101.547-167.68-1.28-270.506l-283.307-283.307c-51.627-51.627-93.867-77.653-136.107-77.653zM550.438 842.671c-22.187 0-50.347-18.347-90.88-58.88l-283.307-283.306c-40.533-40.533-58.88-68.693-58.88-90.453 0-22.187 17.067-49.067 57.6-89.6l209.493-209.493c40.533-40.533 66.987-57.6 89.174-57.6 0 0 0 0 0.427 0 22.187 0 49.92 18.347 90.453 58.88l283.307 283.307c40.533 40.533 58.88 68.693 58.88 90.453 0 22.187-17.067 49.066-57.6 89.6l-209.493 209.493c-40.107 40.533-66.987 57.6-89.173 57.6zM938.667-10.667h-853.333c-17.493 0-32 14.507-32 32s14.507 32 32 32h853.333c17.493 0 32-14.507 32-32s-14.507-32-32-32z" />
</svg>