<?xml version='1.0' encoding='utf-8'?>
<svg xmlns="http://www.w3.org/2000/svg" viewBox="53.35650000000015 117.33299999999934 917.3340000000006 917.3340000000006">
  <path transform="scale(1,-1) translate(0,-1024)" d="M518.417 134.4c-17.493 0-32 14.507-32 32v89.6c0 17.493 14.507 32 32 32s32-14.507 32-32v-89.6c0-17.493-14.507-32-32-32zM763.75-10.667h-490.667v74.667c0 64.853 52.48 117.333 117.333 117.333h256c64.853 0 117.333-52.48 117.333-117.333v-74.667zM337.083 53.333h362.667v10.667c0 29.44-23.893 53.333-53.333 53.333h-256c-29.44 0-53.333-23.893-53.333-53.333v-10.667zM774.417-10.667h-512c-17.493 0-32 14.507-32 32s14.507 32 32 32h512c17.493 0 32-14.507 32-32s-14.507-32-32-32zM786.377 429.222c-8.96 0-17.92 3.84-24.32 11.093-8.107 9.387-10.24 22.613-5.12 33.707 14.507 33.28 21.76 68.695 21.76 105.815v128c0 14.933-2.56 29.44-7.68 44.8-0.427 1.28-0.853 2.987-1.28 4.693-1.28 6.4-1.707 12.8-1.707 18.773 0 17.493 14.507 32 32 32h25.6c76.373 0 138.667-64 138.667-142.933 0-65.28-26.88-129.707-73.387-176.215-0.853-0.853-3.413-2.987-3.84-3.413-25.173-20.907-53.76-44.373-92.16-55.040-2.987-0.853-5.547-1.28-8.533-1.28zM839.71 742.824c2.133-11.52 2.987-23.467 2.987-34.987v-128c0-17.493-1.28-34.133-3.84-51.202 2.56 2.133 4.693 3.84 7.253 5.975 34.133 34.133 54.187 81.92 54.187 130.56 0 38.4-26.027 70.827-60.587 77.653zM238.097 430.929c-3.413 0-6.4 0.427-9.813 1.707-34.987 11.093-67.84 31.573-95.147 58.88-49.067 54.187-73.387 113.493-73.387 176.213 0 77.653 61.013 138.667 138.667 138.667h27.733c10.667 0 20.907-5.547 26.88-14.507s6.827-20.48 2.56-30.293c-6.827-15.36-10.24-32.853-10.24-51.2v-128c0-36.693 7.253-72.533 22.187-106.667 5.12-11.52 2.56-24.747-5.547-34.133-6.4-6.827-14.933-10.667-23.893-10.667zM183.483 741.116c-34.56-6.827-59.733-36.693-59.733-73.387 0-46.507 18.773-91.307 55.893-132.267 1.707-2.133 3.84-3.84 5.973-5.547-2.987 17.493-4.267 34.987-4.267 52.48v128c0 10.24 0.853 20.48 2.133 30.72zM512 245.333c-182.187 0-330.667 148.48-330.667 330.667v128c0 111.787 90.88 202.667 202.667 202.667h256c111.787 0 202.667-90.88 202.667-202.667v-128c0-182.187-148.48-330.667-330.667-330.667zM384 842.667c-76.373 0-138.667-62.293-138.667-138.667v-128c0-147.2 119.467-266.667 266.667-266.667s266.667 119.467 266.667 266.667v128c0 76.373-62.293 138.667-138.667 138.667h-256z" />
</svg>