<?xml version='1.0' encoding='utf-8'?>
<svg xmlns="http://www.w3.org/2000/svg" viewBox="53.333999999999946 -10.667000000000144 917.3330000000003 917.3330000000003">
  <path transform="scale(1,-1) translate(0,-1024)" d="M298.667 501.333h-85.333c-103.253 0-160 56.747-160 160v85.333c0 103.253 56.747 160 160 160h85.333c103.253 0 160-56.747 160-160v-85.333c0-103.253-56.747-160-160-160zM213.333 842.667c-67.413 0-96-28.587-96-96v-85.333c0-67.413 28.587-96 96-96h85.333c67.413 0 96 28.587 96 96v85.333c0 67.413-28.587 96-96 96h-85.333zM810.667 501.333h-85.333c-103.253 0-160 56.747-160 160v85.333c0 103.253 56.747 160 160 160h85.333c103.253 0 160-56.747 160-160v-85.333c0-103.253-56.747-160-160-160zM725.333 842.667c-67.413 0-96-28.587-96-96v-85.333c0-67.413 28.587-96 96-96h85.333c67.413 0 96 28.587 96 96v85.333c0 67.413-28.587 96-96 96h-85.333zM810.667-10.667h-85.333c-103.253 0-160 56.747-160 160v85.333c0 103.253 56.747 160 160 160h85.333c103.253 0 160-56.747 160-160v-85.333c0-103.253-56.747-160-160-160zM725.333 330.667c-67.413 0-96-28.587-96-96v-85.333c0-67.413 28.587-96 96-96h85.333c67.413 0 96 28.587 96 96v85.333c0 67.413-28.587 96-96 96h-85.333zM298.667-10.667h-85.333c-103.253 0-160 56.747-160 160v85.333c0 103.253 56.747 160 160 160h85.333c103.253 0 160-56.747 160-160v-85.333c0-103.253-56.747-160-160-160zM213.333 330.667c-67.413 0-96-28.587-96-96v-85.333c0-67.413 28.587-96 96-96h85.333c67.413 0 96 28.587 96 96v85.333c0 67.413-28.587 96-96 96h-85.333z" />
</svg>