<?xml version='1.0' encoding='utf-8'?>
<svg xmlns="http://www.w3.org/2000/svg" viewBox="53.082638179115634 105.94866753283054 918.0513324671695 918.0513324671695">
  <path transform="scale(1,-1) translate(0,-1024)" d="M512 330.667c-17.493 0-32 14.507-32 32v213.333c0 17.493 14.507 32 32 32s32-14.507 32-32v-213.333c0-17.493-14.507-32-32-32zM512 191.996c-2.56 0-5.547 0.427-8.533 0.853-2.56 0.427-5.12 1.28-7.68 2.56-2.56 0.853-5.12 2.133-7.68 3.84-2.133 1.707-4.267 3.413-6.4 5.12-7.68 8.107-12.373 19.2-12.373 30.293s4.693 22.187 12.373 30.293c2.133 1.707 4.267 3.413 6.4 5.12 2.56 1.707 5.12 2.987 7.68 3.84 2.56 1.28 5.12 2.133 7.68 2.56 5.547 1.28 11.52 1.28 16.64 0 2.987-0.427 5.547-1.28 8.107-2.56 2.56-0.853 5.12-2.133 7.68-3.84 2.133-1.707 4.267-3.413 6.4-5.12 7.68-8.107 12.373-19.2 12.373-30.293s-4.693-22.187-12.373-30.293c-2.133-1.707-4.267-3.413-6.4-5.12-2.56-1.707-5.12-2.987-7.68-3.84-2.56-1.28-5.12-2.133-8.107-2.56-2.56-0.427-5.547-0.853-8.107-0.853zM770.581 14.502h-517.122c-83.2 0-146.773 30.293-179.2 84.907-32 54.613-27.733 125.013 12.8 197.973l258.56 465.067c42.667 76.8 101.548 119.040 166.402 119.040s123.733-42.24 166.4-119.040l258.56-465.494c40.533-72.96 45.227-142.933 12.8-197.973-32.427-54.187-96-84.48-179.2-84.48zM512.021 817.489c-40.107 0-79.36-30.72-110.508-86.187l-258.133-465.494c-29.013-52.053-33.707-99.84-13.653-134.4s64.427-53.333 124.16-53.333h517.122c59.733 0 103.68 18.773 124.16 53.333s15.36 81.92-13.653 134.4l-258.987 465.494c-31.147 55.467-70.4 86.187-110.507 86.187z" />
</svg>