<?xml version='1.0' encoding='utf-8'?>
<svg xmlns="http://www.w3.org/2000/svg" viewBox="53.33299999999997 117.96387499999997 917.333 917.333">
  <path transform="scale(1,-1) translate(0,-1024)" d="M512-10.658c-26.88 0-52.053 10.236-70.827 29.436l-64.853 64.853c-5.12 5.12-18.774 10.667-25.6 10.667h-92.16c-55.467 0-100.267 44.804-100.267 100.271v92.156c0 6.827-5.547 20.48-10.667 25.6l-64.853 64.853c-18.773 18.773-29.44 43.951-29.44 70.831s10.24 52.053 29.44 70.827l64.853 64.854c5.12 5.12 10.667 18.772 10.667 25.599v92.156c0 55.467 44.8 100.271 100.267 100.271h92.16c6.827 0 20.48 5.547 25.6 10.667l64.853 64.854c37.547 37.547 104.107 37.547 141.653 0l64.853-64.854c5.12-5.12 18.773-10.667 25.6-10.667h92.16c55.467 0 100.267-44.804 100.267-100.271v-92.156c0-6.827 5.547-20.479 10.667-25.599l64.853-64.854c18.773-18.773 29.44-43.947 29.44-70.827s-10.24-52.058-29.44-70.831l-64.853-64.853c-5.12-5.12-10.667-18.773-10.667-25.6v-92.156c0-55.467-44.8-100.271-100.267-100.271h-92.16c-6.827 0-20.48-5.547-25.6-10.667l-64.853-64.853c-18.773-19.2-43.947-29.436-70.827-29.436zM192.853 357.555c17.067-17.067 29.44-46.938 29.44-70.831v-92.156c0-20.053 16.214-36.271 36.267-36.271h92.16c23.893 0 53.76-12.369 70.827-29.436l64.853-64.853c13.653-13.653 37.547-13.653 51.2 0l64.853 64.853c17.067 17.067 46.933 29.436 70.827 29.436h92.16c20.053 0 36.267 16.218 36.267 36.271v92.156c0 23.893 12.373 53.764 29.44 70.831l64.853 64.853c6.827 6.827 10.667 15.787 10.667 25.6s-3.84 18.769-10.667 25.596l-64.853 64.855c-17.067 17.067-29.44 46.935-29.44 70.828v92.156c0 20.053-16.213 36.271-36.267 36.271h-92.16c-23.893 0-53.76 12.371-70.827 29.437l-64.853 64.854c-13.653 13.653-37.547 13.653-51.2 0l-64.853-64.854c-17.066-17.067-46.933-29.437-70.827-29.437h-92.16c-20.053 0-36.267-16.218-36.267-36.271v-92.156c0-23.893-12.373-53.762-29.44-70.828l-64.853-64.855c-6.827-6.827-10.667-15.782-10.667-25.596s3.84-18.773 10.667-25.6l64.853-64.853zM640.009 277.333c-23.893 0-43.093 19.2-43.093 42.667s19.2 42.667 42.667 42.667c23.467 0 42.667-19.2 42.667-42.667s-18.773-42.667-42.24-42.667zM384.427 533.333c-23.893 0-43.094 19.2-43.094 42.667s19.2 42.667 42.667 42.667c23.467 0 42.667-19.2 42.667-42.667s-18.773-42.667-42.24-42.667zM383.977 288c-8.107 0-16.213 2.987-22.613 9.387-12.373 12.373-12.373 32.858 0 45.231l256.002 255.998c12.373 12.373 32.853 12.373 45.227 0s12.373-32.856 0-45.229l-256.002-256c-6.4-6.4-14.507-9.387-22.613-9.387z" />
</svg>