<?xml version='1.0' encoding='utf-8'?>
<svg xmlns="http://www.w3.org/2000/svg" viewBox="53.38931250189421 -10.666999999999973 917.22975 917.22975">
  <path transform="scale(1,-1) translate(0,-1024)" d="M404.050 308.058c-8.107 0-16.213 2.987-22.613 9.387-34.987 34.987-54.187 81.493-54.187 130.56 0 101.972 82.773 184.746 184.746 184.746 49.067 0 95.573-19.2 130.56-54.187 5.973-5.973 9.387-14.080 9.387-22.613s-3.413-16.64-9.387-22.613l-215.892-215.892c-6.4-6.4-14.507-9.387-22.613-9.387zM511.996 568.75c-66.56 0-120.746-54.186-120.746-120.746 0-21.333 5.547-41.813 15.787-59.733l164.692 164.692c-17.92 10.24-38.4 15.787-59.733 15.787zM238.927 170.24c-7.253 0-14.933 2.56-20.907 7.68-45.653 38.827-86.613 86.613-121.6 142.080-45.227 70.4-45.227 185.173 0 256.001 104.107 162.987 255.573 256.853 415.572 256.853 93.867 0 186.453-32.427 267.52-93.44 14.080-10.667 17.067-30.72 6.4-44.8s-30.72-17.067-44.8-6.4c-69.973 52.907-149.333 80.64-229.12 80.64-137.812 0-269.652-82.773-361.812-227.413-32-49.921-32-136.961 0-186.881s68.693-93.013 109.227-128c13.227-11.52 14.933-31.573 3.413-45.227-5.973-7.253-14.933-11.093-23.893-11.093zM512.026 63.147c-56.747 0-112.215 11.52-165.549 34.133-16.213 6.827-23.893 25.6-17.067 41.813s25.6 23.893 41.813 17.067c45.227-19.2 92.589-29.013 140.375-29.013 137.813 0 269.653 82.773 361.813 227.413 32 49.92 32 136.96 0 186.88-13.227 20.907-27.738 40.96-43.093 59.733-11.093 13.653-8.96 33.707 4.693 45.227 13.653 11.093 33.702 9.387 45.227-4.693 16.64-20.48 32.853-42.667 47.36-65.707 45.227-70.4 45.227-185.173 0-256-104.107-162.987-255.573-256.853-415.573-256.853zM541.423 265.809c-14.933 0-28.587 10.667-31.573 26.027-3.413 17.493 8.107 34.133 25.6 37.12 46.933 8.533 86.187 47.787 94.72 94.72 3.413 17.493 20.053 28.587 37.547 25.6 17.493-3.413 29.013-20.053 25.6-37.547-13.653-73.813-72.533-132.267-145.92-145.92-2.133 0.427-3.84 0-5.973 0zM85.31-10.667c-8.107 0-16.213 2.987-22.613 9.387-12.373 12.373-12.373 32.853 0 45.227l318.72 318.72c12.373 12.373 32.853 12.373 45.227 0 12.375-12.373 12.375-32.853 0-45.227l-318.72-318.72c-6.4-6.4-14.507-9.387-22.613-9.387zM619.977 523.951c-8.107 0-16.213 2.987-22.613 9.385-12.373 12.373-12.373 32.853 0 45.227l318.72 318.72c12.373 12.373 32.853 12.373 45.227 0s12.373-32.853 0-45.227l-318.72-318.72c-6.4-6.398-14.507-9.385-22.613-9.385z" />
</svg>