<?xml version='1.0' encoding='utf-8'?>
<svg xmlns="http://www.w3.org/2000/svg" viewBox="57.09407652287649 -10.666999999999973 909.811846954247 909.811846954247">
  <path transform="scale(1,-1) translate(0,-1024)" d="M236.373 127.142c-26.027 0-50.347 8.964-67.84 25.604-22.187 20.907-32.853 52.48-29.013 86.613l15.787 138.24c2.987 26.027 18.773 60.587 37.12 79.36l350.294 370.771c87.467 92.587 178.773 95.147 271.36 7.68s95.147-178.773 7.68-271.36l-350.293-370.771c-17.92-19.2-51.2-37.12-77.227-41.391l-137.387-23.462c-7.253-0.427-13.653-1.284-20.48-1.284zM679.68 835.838c-32.853 0-61.44-20.48-90.453-51.2l-350.294-371.202c-8.533-8.96-18.347-30.293-20.053-42.667l-15.787-138.236c-1.707-14.080 1.707-25.6 9.387-32.853s19.2-9.813 33.28-7.68l137.387 23.462c12.373 2.133 32.853 13.231 41.387 22.191l350.294 370.771c52.907 56.32 72.107 108.373-5.12 180.907-34.133 32.853-63.573 46.507-90.027 46.507zM739.857 492.809c-0.853 0-2.133 0-2.987 0-133.12 13.227-240.213 114.345-260.693 246.611-2.56 17.493 9.387 33.707 26.88 36.693 17.493 2.56 33.707-9.387 36.693-26.88 16.213-103.253 99.84-182.613 203.947-192.853 17.493-1.707 30.293-17.493 28.587-34.985-2.133-16.213-16.213-28.587-32.427-28.587zM896-10.667h-768c-17.493 0-32 14.507-32 32s14.507 32 32 32h768c17.493 0 32-14.507 32-32s-14.507-32-32-32z" />
</svg>