<?xml version='1.0' encoding='utf-8'?>
<svg xmlns="http://www.w3.org/2000/svg" viewBox="137.43712499999987 74.66699999999986 749.1257500000002 749.1257500000002">
  <path transform="scale(1,-1) translate(0,-1024)" d="M616.098 650.672c-8.107 0-16.213 2.987-22.613 9.387l-86.613 86.613-86.615-86.613c-12.373-12.373-32.853-12.373-45.227 0s-12.373 32.853 0 45.227l109.228 109.227c12.373 12.373 32.853 12.373 45.227 0l109.227-109.227c12.373-12.373 12.373-32.853 0-45.227-6.4-6.4-14.507-9.387-22.613-9.387zM506.918 322.987c-17.493 0-32 14.507-32 32v433.92c0 17.493 14.507 32 32 32s32-14.507 32-32v-433.92c0-17.92-14.507-32-32-32zM512 74.667c-219.733 0-373.333 153.6-373.333 373.333 0 17.493 14.507 32 32 32s32-14.507 32-32c0-182.187 127.147-309.333 309.333-309.333s309.333 127.147 309.333 309.333c0 17.493 14.507 32 32 32s32-14.507 32-32c0-219.733-153.6-373.333-373.333-373.333z" />
</svg>