<?xml version='1.0' encoding='utf-8'?>
<svg xmlns="http://www.w3.org/2000/svg" viewBox="53.33299999999997 -10.66700000000003 917.3340000000001 917.3340000000001">
  <path transform="scale(1,-1) translate(0,-1024)" d="M843.52 373.333h-172.373c-85.76 0-127.147 39.68-127.147 121.6v290.133c0 81.92 41.813 121.6 127.147 121.6h172.373c85.76 0 127.147-39.68 127.147-121.6v-290.133c0-81.92-41.813-121.6-127.147-121.6zM671.147 842.667c-54.187 0-63.147-14.507-63.147-57.6v-290.133c0-43.093 8.96-57.6 63.147-57.6h172.373c54.187 0 63.147 14.507 63.147 57.6v290.133c0 43.093-8.96 57.6-63.147 57.6h-172.373zM843.52-10.667h-172.373c-85.76 0-127.147 39.68-127.147 121.6v76.8c0 81.92 41.813 121.6 127.147 121.6h172.373c85.76 0 127.147-39.68 127.147-121.6v-76.8c0-81.92-41.813-121.6-127.147-121.6zM671.147 245.333c-54.187 0-63.147-14.507-63.147-57.6v-76.8c0-43.093 8.96-57.6 63.147-57.6h172.373c54.187 0 63.147 14.507 63.147 57.6v76.8c0 43.093-8.96 57.6-63.147 57.6h-172.373zM352.853-10.667h-172.373c-85.76 0-127.147 39.68-127.147 121.6v290.133c0 81.92 41.813 121.6 127.147 121.6h172.373c85.76 0 127.147-39.68 127.147-121.6v-290.133c0-81.92-41.813-121.6-127.147-121.6zM180.48 458.667c-54.187 0-63.147-14.507-63.147-57.6v-290.133c0-43.093 8.96-57.6 63.147-57.6h172.373c54.187 0 63.147 14.507 63.147 57.6v290.133c0 43.093-8.96 57.6-63.147 57.6h-172.373zM352.853 586.667h-172.373c-85.76 0-127.147 39.68-127.147 121.6v76.8c0 81.92 41.813 121.6 127.147 121.6h172.373c85.76 0 127.147-39.68 127.147-121.6v-76.8c0-81.92-41.813-121.6-127.147-121.6zM180.48 842.667c-54.187 0-63.147-14.507-63.147-57.6v-76.8c0-43.093 8.96-57.6 63.147-57.6h172.373c54.187 0 63.147 14.507 63.147 57.6v76.8c0 43.093-8.96 57.6-63.147 57.6h-172.373z" />
</svg>