<?xml version='1.0' encoding='utf-8'?>
<svg xmlns="http://www.w3.org/2000/svg" viewBox="53.324360691778395 106.56274999999977 928.1042500000002 928.1042500000002">
  <path transform="scale(1,-1) translate(0,-1024)" d="M640-10.667h-256c-231.68 0-330.667 98.987-330.667 330.667v256c0 231.68 98.987 330.667 330.667 330.667h85.333c17.493 0 32-14.507 32-32s-14.507-32-32-32h-85.333c-196.693 0-266.667-69.973-266.667-266.667v-256c0-196.693 69.973-266.667 266.667-266.667h256c196.693 0 266.667 69.973 266.667 266.667v85.333c0 17.493 14.507 32 32 32s32-14.507 32-32v-85.333c0-231.68-98.987-330.667-330.667-330.667zM362.639 205.222c-26.027 0-49.92 9.387-67.413 26.453-20.907 20.907-29.867 51.2-25.173 83.2l18.347 128.427c3.413 24.747 19.627 56.747 37.12 74.24l336.211 336.215c84.907 84.907 171.093 84.907 256 0 46.507-46.507 67.413-93.867 63.147-141.227-3.84-38.4-24.32-75.947-63.147-114.347l-336.213-336.215c-17.493-17.493-49.493-33.707-74.24-37.12l-128.425-18.347c-5.547-1.28-11.093-1.28-16.213-1.28zM706.957 808.531l-336.211-336.215c-8.107-8.107-17.493-26.88-19.2-37.973l-18.347-128.427c-1.707-12.373 0.853-22.613 7.253-29.013s16.64-8.96 29.013-7.253l128.425 18.347c11.093 1.707 30.293 11.093 37.973 19.2l336.213 336.215c27.733 27.733 42.24 52.48 44.373 75.52 2.56 27.733-11.947 57.173-44.373 90.027-68.267 68.267-115.2 49.067-165.12-0.427zM846.916 540.596c-2.987 0-5.973 0.427-8.533 1.28-112.213 31.573-201.387 120.747-232.96 232.96-4.693 17.067 5.12 34.56 22.187 39.68 17.067 4.693 34.56-5.12 39.253-22.187 25.6-90.88 97.707-162.987 188.587-188.587 17.067-4.693 26.88-22.613 22.187-39.68-3.84-14.507-16.64-23.467-30.72-23.467z" />
</svg>