<?xml version='1.0' encoding='utf-8'?>
<svg xmlns="http://www.w3.org/2000/svg" viewBox="53.33299999999997 106.66599999999994 917.3340000000001 917.3340000000001">
  <path transform="scale(1,-1) translate(0,-1024)" d="M843.52 480h-172.373c-85.76 0-127.147 41.813-127.147 127.147v172.373c0 85.76 41.813 127.147 127.147 127.147h172.373c85.76 0 127.147-41.813 127.147-127.147v-172.373c0-85.333-41.813-127.147-127.147-127.147zM671.147 842.667c-50.347 0-63.147-12.8-63.147-63.147v-172.373c0-50.347 12.8-63.147 63.147-63.147h172.373c50.347 0 63.147 12.8 63.147 63.147v172.373c0 50.347-12.8 63.147-63.147 63.147h-172.373zM352.853 480h-172.373c-85.76 0-127.147 37.973-127.147 116.48v193.707c0 78.507 41.813 116.48 127.147 116.48h172.373c85.76 0 127.147-37.973 127.147-116.48v-193.28c0-78.933-41.813-116.907-127.147-116.907zM180.48 842.667c-57.173 0-63.147-16.213-63.147-52.48v-193.28c0-36.693 5.973-52.48 63.147-52.48h172.373c57.173 0 63.147 16.213 63.147 52.48v193.28c0 36.693-5.973 52.48-63.147 52.48h-172.373zM352.853-10.667h-172.373c-85.76 0-127.147 41.813-127.147 127.147v172.373c0 85.76 41.813 127.147 127.147 127.147h172.373c85.76 0 127.147-41.813 127.147-127.147v-172.373c0-85.333-41.813-127.147-127.147-127.147zM180.48 352c-50.347 0-63.147-12.8-63.147-63.147v-172.373c0-50.347 12.8-63.147 63.147-63.147h172.373c50.347 0 63.147 12.8 63.147 63.147v172.373c0 50.347-12.8 63.147-63.147 63.147h-172.373zM874.667 181.333h-256c-17.493 0-32 14.507-32 32s14.507 32 32 32h256c17.493 0 32-14.507 32-32s-14.507-32-32-32zM746.667 53.333c-17.493 0-32 14.507-32 32v256c0 17.493 14.507 32 32 32s32-14.507 32-32v-256c0-17.493-14.507-32-32-32z" />
</svg>