<?xml version='1.0' encoding='utf-8'?>
<svg xmlns="http://www.w3.org/2000/svg" viewBox="62.08275000000003 126.29224999999985 899.4145000000001 899.4145000000001">
  <path transform="scale(1,-1) translate(0,-1024)" d="M511.996 263.258c-101.972 0-184.746 82.773-184.746 184.747s82.773 184.746 184.746 184.746c101.973 0 184.747-82.773 184.747-184.746s-82.773-184.747-184.747-184.747zM511.996 568.75c-66.56 0-120.746-54.186-120.746-120.746s54.186-120.747 120.746-120.747c66.56 0 120.747 54.187 120.747 120.747s-54.187 120.746-120.747 120.746zM512.004 63.147c-160.428 0-311.894 93.867-416.001 256.853-45.227 70.4-45.227 185.173 0 256.001 104.533 162.987 256 256.853 416.001 256.853s311.467-93.867 415.573-256.853c45.227-70.401 45.227-185.174 0-256.001-104.107-162.987-255.573-256.853-415.573-256.853zM512.004 768.854c-137.814 0-269.654-82.773-361.814-227.413-32-49.921-32-136.961 0-186.881 92.16-144.64 224-227.413 361.814-227.413s269.653 82.773 361.813 227.413c32 49.92 32 136.96 0 186.881-92.16 144.64-224 227.413-361.813 227.413z" />
</svg>