<?xml version='1.0' encoding='utf-8'?>
<svg xmlns="http://www.w3.org/2000/svg" viewBox="73.1660000000004 -10.667999999999893 917.3339999999998 917.3339999999998">
  <path transform="scale(1,-1) translate(0,-1024)" d="M720.166 96c-81.92 0-159.147 43.52-200.96 113.92-22.187 35.84-33.707 77.653-33.707 120.747 0 129.28 105.387 234.667 234.667 234.667s234.667-105.387 234.667-234.667c0-43.093-11.947-84.907-34.133-121.173-41.387-69.973-118.187-113.493-200.533-113.493zM720.166 501.333c-94.293 0-170.667-76.373-170.667-170.667 0-31.147 8.533-61.44 24.747-87.467 30.72-51.627 86.613-83.2 145.92-83.2 60.587 0 115.2 30.72 145.92 82.773 16.213 26.453 24.747 56.747 24.747 87.893 0 94.293-76.373 170.667-170.667 170.667zM796.134 299.52h-151.467c-17.493 0-32 14.507-32 32s14.507 32 32 32h151.467c17.493 0 32-14.507 32-32s-14.507-32-32-32zM720.166 222.293c-17.493 0-32 14.507-32 32v151.040c0 17.493 14.507 32 32 32s32-14.507 32-32v-151.467c0-17.493-14.080-31.573-32-31.573zM466.381-10.667c-20.48 0-40.961 5.12-59.308 15.36-37.973 21.333-60.587 59.733-60.587 102.827v228.267c0 21.333-14.080 53.76-27.733 70.4l-162.133 170.24c-26.88 27.733-47.787 74.239-47.787 108.372v99.414c0 68.693 52.053 122.453 118.187 122.453h569.174c65.28 0 118.187-52.908 118.187-118.188v-94.719c0-44.8-26.453-95.148-52.053-121.602l-76.8-67.839c-7.68-6.827-18.347-9.387-28.587-7.253-11.52 2.987-23.893 4.267-36.693 4.267-94.293 0-170.667-76.373-170.667-170.667 0-31.147 8.533-61.44 24.747-87.893 13.653-22.613 32-41.387 53.333-54.613 9.387-5.973 15.36-16.213 15.36-27.307v-14.507c0-33.707-20.48-81.067-54.613-101.12l-58.88-37.973c-19.2-11.947-41.387-17.92-63.147-17.92zM227.447 842.667c-30.293 0-54.187-25.6-54.187-58.453v-99.414c0-15.36 12.8-46.933 29.867-64l164.267-172.8c21.76-26.88 43.52-72.533 43.52-112.64v-228.267c0-28.16 19.628-42.24 27.734-46.933 18.347-10.24 40.107-9.813 56.747 0.427l59.733 38.4c11.52 6.827 23.040 28.587 23.893 43.947-23.467 17.493-43.947 40.107-59.307 65.707-22.187 36.267-34.133 78.080-34.133 120.747 0 129.28 105.387 234.665 234.667 234.665 11.947 0 23.893-0.853 34.987-2.56l63.147 55.893c14.507 14.933 32.427 50.348 32.427 75.521v94.721c0 29.867-24.32 54.185-54.187 54.185h-569.174v0.854z" />
</svg>