<?xml version='1.0' encoding='utf-8'?>
<svg xmlns="http://www.w3.org/2000/svg" viewBox="53.436999999999955 117.54099999999988 917.1260000000001 917.1260000000001">
  <path transform="scale(1,-1) translate(0,-1024)" d="M681.417-10.667h-341.333c-145.92 0-202.667 56.747-202.667 202.667v341.333c0 17.493 14.507 32 32 32h682.667c17.493 0 32-14.507 32-32v-341.333c0-145.92-56.747-202.667-202.667-202.667zM201.417 501.333v-309.333c0-110.080 28.587-138.667 138.667-138.667h341.333c110.080 0 138.667 28.587 138.667 138.667v309.333h-618.667zM832 501.333h-640c-74.667 0-117.333 42.667-117.333 117.333v42.667c0 74.667 42.667 117.333 117.333 117.333h640c72.533 0 117.333-44.8 117.333-117.333v-42.667c0-72.533-44.8-117.333-117.333-117.333zM192 714.667c-38.827 0-53.333-14.507-53.333-53.333v-42.667c0-38.827 14.507-53.333 53.333-53.333h640c37.547 0 53.333 15.787 53.333 53.333v42.667c0 37.547-15.787 53.333-53.333 53.333h-640zM496.602 714.672h-235.519c-8.96 0-17.493 3.84-23.467 10.24-26.027 28.587-25.173 72.533 2.133 99.84l60.587 60.587c28.16 28.16 74.667 28.16 102.827 0l116.052-116.053c8.96-8.96 11.947-23.040 6.827-34.987-4.693-11.947-16.213-19.627-29.44-19.627zM284.549 778.672h135.253l-61.867 61.44c-3.413 3.413-8.96 3.413-12.373 0l-60.587-60.587c0-0.427-0.427-0.427-0.427-0.853zM762.458 714.672h-235.52c-12.8 0-24.747 7.68-29.44 19.627-5.12 11.947-2.133 25.6 6.827 34.987l116.053 116.053c28.16 28.16 74.667 28.16 102.827 0l60.587-60.587c27.307-27.307 28.587-71.253 2.133-99.84-5.973-6.4-14.507-10.24-23.467-10.24zM604.591 778.672h135.253c-0.427 0.427-0.427 0.427-0.853 0.853l-60.587 60.587c-3.413 3.413-8.96 3.413-12.373 0l-61.44-61.44zM424.083 238.933c-11.947 0-24.32 2.987-35.413 8.96-24.32 13.227-39.253 38.4-39.253 65.707v219.733c0 17.493 14.507 32 32 32h257.709c17.493 0 32-14.507 32-32v-218.88c0-27.733-14.933-52.907-39.253-65.707-24.32-13.227-53.76-11.52-76.8 3.84l-37.973 25.6c-3.413 2.56-8.107 2.56-11.947 0l-40.107-26.453c-12.373-8.533-26.88-12.8-40.962-12.8zM413.417 501.333v-187.307c0-5.547 3.413-8.107 5.547-9.387s6.4-2.56 11.095 0.427l40.107 26.453c25.173 16.64 57.6 16.64 82.347 0l37.973-25.6c4.693-2.987 8.96-1.707 11.093-0.427s5.547 3.84 5.547 9.387v186.88h-193.709v-0.427z" />
</svg>