<?xml version='1.0' encoding='utf-8'?>
<svg xmlns="http://www.w3.org/2000/svg" viewBox="53.333000000000084 117.33299999999986 917.3340000000003 917.3340000000003">
  <path transform="scale(1,-1) translate(0,-1024)" d="M512-10.667c-253.013 0-458.667 205.653-458.667 458.667s205.653 458.667 458.667 458.667c253.013 0 458.667-205.653 458.667-458.667s-205.653-458.667-458.667-458.667zM512 842.667c-217.6 0-394.667-177.067-394.667-394.667s177.067-394.667 394.667-394.667c217.6 0 394.667 177.067 394.667 394.667s-177.067 394.667-394.667 394.667zM384.010 32h-42.667c-17.493 0-32 14.507-32 32s13.653 31.573 31.147 32c-66.987 228.693-66.987 475.307 0 704-17.493 0.427-31.147 14.507-31.147 32s14.507 32 32 32h42.667c10.24 0 20.053-5.12 26.027-13.227 5.973-8.533 7.68-19.2 4.267-29.013-80.213-241.067-80.213-506.453 0-747.947 3.413-9.813 1.707-20.48-4.267-29.013-5.973-7.68-15.787-12.8-26.027-12.8zM640.017 31.991c-3.413 0-6.827 0.427-10.24 1.707-16.64 5.547-26.027 23.893-20.053 40.533 80.213 241.067 80.213 506.454 0 747.948-5.547 16.64 3.413 34.987 20.053 40.533 17.067 5.547 34.987-3.413 40.533-20.053 84.907-254.293 84.907-534.188 0-788.054-4.267-14.080-17.067-22.613-30.293-22.613zM512 226.142c-119.040 0-237.653 16.64-352 50.347-0.427-17.067-14.507-31.147-32-31.147s-32 14.507-32 32v42.667c0 10.24 5.12 20.053 13.227 26.027 8.533 5.973 19.2 7.68 29.013 4.267 241.067-80.213 506.88-80.213 747.947 0 9.813 3.413 20.48 1.707 29.013-4.267s13.227-15.787 13.227-26.027v-42.667c0-17.493-14.507-32-32-32s-31.573 13.653-32 31.147c-114.773-33.707-233.387-50.347-352.427-50.347zM895.991 544.006c-3.413 0-6.827 0.427-10.24 1.707-241.067 80.213-506.881 80.213-747.948 0-17.067-5.547-34.987 3.413-40.533 20.053-5.12 17.067 3.84 34.987 20.48 40.533 254.293 84.907 534.188 84.907 788.054 0 16.64-5.547 26.027-23.893 20.053-40.533-3.84-13.227-16.64-21.76-29.867-21.76z" />
</svg>