<?xml version='1.0' encoding='utf-8'?>
<svg xmlns="http://www.w3.org/2000/svg" viewBox="74.66700000000003 149.33400000000006 874.6659999999999 874.6659999999999">
  <path transform="scale(1,-1) translate(0,-1024)" d="M341.306 32c-1.28 0-2.56 0-3.413 0-17.493 2.133-30.293 17.92-28.16 35.413l85.333 767.999c2.133 17.493 17.92 29.867 35.415 28.16 17.493-2.133 30.293-17.92 28.16-35.413l-85.335-767.999c-2.133-16.213-15.787-28.16-32-28.16zM597.308 32c-1.28 0-2.56 0-3.413 0-17.493 2.133-30.293 17.92-28.16 35.413l85.333 767.999c2.133 17.493 17.493 29.867 35.413 28.16 17.493-2.133 30.293-17.92 28.16-35.413l-85.333-767.999c-2.133-16.213-15.787-28.16-32-28.16zM917.333 544h-768c-17.493 0-32 14.507-32 32s14.507 32 32 32h768c17.493 0 32-14.507 32-32s-14.507-32-32-32zM874.667 288h-768c-17.493 0-32 14.507-32 32s14.507 32 32 32h768c17.493 0 32-14.507 32-32s-14.507-32-32-32z" />
</svg>