<?xml version='1.0' encoding='utf-8'?>
<svg xmlns="http://www.w3.org/2000/svg" viewBox="134.82899999999984 202.66699999999986 754.3420000000002 754.3420000000002">
  <path transform="scale(1,-1) translate(0,-1024)" d="M506.871 320.422c-8.107 0-16.213 2.987-22.613 9.387l-109.228 109.227c-12.373 12.373-12.373 32.853 0 45.227s32.853 12.373 45.227 0l86.615-86.613 86.613 86.613c12.373 12.373 32.853 12.373 45.227 0s12.373-32.853 0-45.227l-109.227-109.227c-6.4-6.4-14.507-9.387-22.613-9.387zM506.918 323.413c-17.493 0-32 14.507-32 32v433.92c0 17.493 14.507 32 32 32s32-14.507 32-32v-433.92c0-17.493-14.507-32-32-32zM512 66.991c-219.733 0-373.333 153.6-373.333 373.333 0 17.493 14.507 32 32 32s32-14.507 32-32c0-182.187 127.147-309.333 309.333-309.333s309.333 127.147 309.333 309.333c0 17.493 14.507 32 32 32s32-14.507 32-32c0-219.733-153.6-373.333-373.333-373.333z" />
</svg>