<?xml version='1.0' encoding='utf-8'?>
<svg xmlns="http://www.w3.org/2000/svg" viewBox="53.333000000000084 -10.667000000000144 917.3340000000003 917.3340000000003">
  <path transform="scale(1,-1) translate(0,-1024)" d="M512-10.667c-253.013 0-458.667 205.653-458.667 458.667s205.653 458.667 458.667 458.667c253.013 0 458.667-205.653 458.667-458.667s-205.653-458.667-458.667-458.667zM512 842.667c-217.6 0-394.667-177.067-394.667-394.667s177.067-394.667 394.667-394.667c217.6 0 394.667 177.067 394.667 394.667s-177.067 394.667-394.667 394.667zM512 373.333c-17.493 0-32 14.507-32 32v213.333c0 17.493 14.507 32 32 32s32-14.507 32-32v-213.333c0-17.493-14.507-32-32-32zM512 234.671c-5.547 0-11.093 1.28-16.213 3.413s-9.813 5.12-14.080 8.96c-3.84 4.267-6.827 8.533-8.96 14.080-2.133 5.12-3.413 10.667-3.413 16.213s1.28 11.093 3.413 16.213c2.133 5.12 5.12 9.813 8.96 14.080 4.267 3.84 8.96 6.827 14.080 8.96 10.24 4.267 22.187 4.267 32.427 0 5.12-2.133 9.813-5.12 14.080-8.96 3.84-4.267 6.827-8.96 8.96-14.080s3.413-10.667 3.413-16.213c0-5.547-1.28-11.093-3.413-16.213-2.133-5.547-5.12-9.813-8.96-14.080-4.267-3.84-8.96-6.827-14.080-8.96s-10.667-3.413-16.213-3.413z" />
</svg>