<?xml version='1.0' encoding='utf-8'?>
<svg xmlns="http://www.w3.org/2000/svg" viewBox="53.2383915098024 -11.093000000000131 917.7600000000001 917.7600000000001">
  <path transform="scale(1,-1) translate(0,-1024)" d="M512.038 355.418c-90.882 0-165.122 73.813-165.122 165.12 0 91.305 74.24 164.692 165.122 164.692 90.88 0 165.12-73.813 165.12-165.118 0-91.307-74.24-164.693-165.12-164.693zM512.038 621.229c-55.467 0-101.122-45.227-101.122-101.118 0-55.893 45.228-101.12 101.122-101.12s101.12 45.227 101.12 101.12c0 55.892-45.653 101.118-101.12 101.118zM511.987-11.093c-63.147 0-126.72 23.893-176.214 71.253-125.867 121.173-264.96 314.453-212.48 544.427 47.36 208.64 229.547 302.080 388.694 302.080 0 0 0 0 0.427 0 159.147 0 341.333-93.44 388.693-302.507 52.053-229.973-87.040-422.827-212.907-544-49.493-47.36-113.067-71.253-176.213-71.253zM511.987 842.667c-124.16 0-283.734-66.133-325.974-252.16-46.080-200.96 80.213-374.187 194.56-483.84 73.814-71.253 189.44-71.253 263.254 0 113.92 109.653 240.213 282.88 194.987 483.84-42.667 186.027-202.667 252.16-326.827 252.16z" />
</svg>