<?xml version='1.0' encoding='utf-8'?>
<svg xmlns="http://www.w3.org/2000/svg" viewBox="73.8651250000002 137.81200000000018 876.3749999999999 876.3749999999999">
  <path transform="scale(1,-1) translate(0,-1024)" d="M650.261 9.813h-5.547c-189.44 0-280.747 74.667-296.533 241.92-1.707 17.493 11.093 33.28 29.013 34.987 17.067 1.707 33.28-11.52 34.987-29.013 12.373-133.973 75.52-183.893 232.96-183.893h5.547c173.653 0 235.093 61.44 235.093 235.093v278.188c0 173.653-61.44 235.093-235.093 235.093h-5.547c-158.293 0-221.44-50.773-232.96-187.307-2.133-17.493-17.067-30.72-34.987-29.013-17.92 1.28-30.72 17.067-29.44 34.56 14.507 169.813 106.24 245.76 296.96 245.76h5.547c209.493 0 299.093-89.6 299.093-299.093v-278.188c0-209.493-89.6-299.093-299.093-299.093zM639.962 416h-485.545c-17.493 0-32 14.507-32 32s14.507 32 32 32h485.545c17.493 0 32-14.507 32-32s-14.507-32-32-32zM249.577 273.062c-8.107 0-16.213 2.987-22.613 9.387l-142.933 142.933c-12.373 12.373-12.373 32.853 0 45.227l142.933 142.934c12.373 12.373 32.853 12.373 45.227 0s12.373-32.853 0-45.227l-120.32-120.32 120.32-120.32c12.373-12.373 12.373-32.853 0-45.227-5.973-6.4-14.507-9.387-22.613-9.387z" />
</svg>