<?xml version='1.0' encoding='utf-8'?>
<svg xmlns="http://www.w3.org/2000/svg" viewBox="53.33349999999996 -10.667000000000087 917.3330000000001 917.3330000000001">
  <path transform="scale(1,-1) translate(0,-1024)" d="M640-10.667h-256c-188.16 0-245.333 57.173-245.333 245.333v426.667c0 188.16 57.173 245.333 245.333 245.333h256c188.16 0 245.333-57.173 245.333-245.333v-426.667c0-188.16-57.173-245.333-245.333-245.333zM384 842.667c-152.747 0-181.333-29.013-181.333-181.333v-426.667c0-152.32 28.587-181.333 181.333-181.333h256c152.747 0 181.333 29.013 181.333 181.333v426.667c0 152.32-28.587 181.333-181.333 181.333h-256zM597.333 693.333h-170.667c-17.493 0-32 14.507-32 32s14.507 32 32 32h170.667c17.493 0 32-14.507 32-32s-14.507-32-32-32zM512.009 112.64c-54.187 0-98.133 43.947-98.133 98.133s43.947 98.133 98.133 98.133c54.187 0 98.133-43.947 98.133-98.133s-43.947-98.133-98.133-98.133zM512.009 245.333c-18.773 0-34.133-15.36-34.133-34.133s15.36-34.133 34.133-34.133c18.773 0 34.133 15.36 34.133 34.133s-15.36 34.133-34.133 34.133z" />
</svg>