<?xml version='1.0' encoding='utf-8'?>
<svg xmlns="http://www.w3.org/2000/svg" viewBox="52.05299999999994 -13.227000000000032 919.894 919.894">
  <path transform="scale(1,-1) translate(0,-1024)" d="M512-13.227c-29.44 0-57.173 14.933-76.8 40.96l-64 85.333c-1.28 1.707-6.4 4.267-8.96 4.267h-20.907c-177.92 0-288 48.213-288 288v213.333c0 188.587 99.413 288 288 288h256c17.493 0 32-14.507 32-32s-14.507-32-32-32h-256c-152.747 0-224-71.253-224-224v-213.333c0-192.853 66.133-224 224-224h21.333c21.76 0 46.507-12.373 59.733-29.867l64-85.333c14.933-19.627 36.267-19.627 51.2 0l64 85.333c14.080 18.773 36.267 29.867 59.733 29.867h21.333c152.747 0 224 71.253 224 224v128c0 17.493 14.507 32 32 32s32-14.507 32-32v-128c0-188.587-99.413-288-288-288h-21.333c-3.413 0-6.4-1.707-8.533-4.267l-64-85.333c-19.627-26.027-47.36-40.96-76.8-40.96zM512 448c-23.893 0-42.667 19.2-42.667 42.667s19.2 42.667 42.667 42.667c23.467 0 42.667-19.2 42.667-42.667s-18.773-42.667-42.667-42.667zM682.667 448c-23.893 0-42.667 19.2-42.667 42.667s19.2 42.667 42.667 42.667c23.467 0 42.667-19.2 42.667-42.667s-18.773-42.667-42.667-42.667zM341.333 448c-23.893 0-42.667 19.2-42.667 42.667s19.2 42.667 42.667 42.667c23.467 0 42.667-19.2 42.667-42.667s-18.773-42.667-42.667-42.667zM832 629.333c-76.373 0-138.667 62.293-138.667 138.667s62.293 138.667 138.667 138.667c76.373 0 138.667-62.293 138.667-138.667s-62.293-138.667-138.667-138.667zM832 842.667c-40.96 0-74.667-33.707-74.667-74.667s33.707-74.667 74.667-74.667c40.96 0 74.667 33.707 74.667 74.667s-33.707 74.667-74.667 74.667z" />
</svg>