<?xml version='1.0' encoding='utf-8'?>
<svg xmlns="http://www.w3.org/2000/svg" viewBox="10.665999999999997 64.0 960.0 960.0">
  <path transform="scale(1,-1) translate(0,-1024)" d="M512 309.333c-76.373 0-138.667 62.293-138.667 138.667s62.293 138.667 138.667 138.667c76.373 0 138.667-62.293 138.667-138.667s-62.293-138.667-138.667-138.667zM512 522.667c-40.96 0-74.667-33.707-74.667-74.667s33.707-74.667 74.667-74.667c40.96 0 74.667 33.707 74.667 74.667s-33.707 74.667-74.667 74.667zM789.333 309.333c-17.493 0-32 14.507-32 32v213.333c0 17.493 14.507 32 32 32s32-14.507 32-32v-213.333c0-17.493-14.507-32-32-32zM213.333-10.667c-111.787 0-202.667 90.88-202.667 202.667s90.88 202.667 202.667 202.667c111.787 0 202.667-90.88 202.667-202.667s-90.88-202.667-202.667-202.667zM213.333 330.667c-76.373 0-138.667-62.293-138.667-138.667s62.293-138.667 138.667-138.667c76.373 0 138.667 62.293 138.667 138.667s-62.293 138.667-138.667 138.667zM170.662 117.342c-10.667 0-21.334 5.547-27.307 15.36-8.96 14.933-4.266 34.991 11.094 43.951l32.427 19.622c2.987 1.707 5.12 5.547 5.12 8.96v39.68c0 17.493 14.507 32 32 32s32-14.507 32-32v-39.68c0-26.027-14.079-50.773-36.265-64l-32.427-19.627c-5.12-2.987-11.094-4.267-16.641-4.267zM725.333 74.667h-362.667c-17.493 0-32 14.507-32 32s14.507 32 32 32h362.667c122.027 0 181.333 59.307 181.333 181.333v256c0 122.027-59.307 181.333-181.333 181.333h-426.667c-122.027 0-181.333-59.307-181.333-181.333v-264.533c0-17.493-14.507-32-32-32s-32 14.507-32 32v264.533c0 155.733 89.6 245.333 245.333 245.333h426.667c155.733 0 245.333-89.6 245.333-245.333v-256c0-155.733-89.6-245.333-245.333-245.333z" />
</svg>