<?xml version='1.0' encoding='utf-8'?>
<svg xmlns="http://www.w3.org/2000/svg" viewBox="53.33400000000006 -10.877000000000123 917.3330000000001 917.3330000000001">
  <path transform="scale(1,-1) translate(0,-1024)" d="M341.333 7.684c-11.947 0-24.321 2.987-35.414 8.96-24.32 12.8-39.252 38.4-39.252 65.707v60.582c-128.853 13.227-213.333 107.951-213.333 243.631v255.998c0 146.773 98.56 245.333 245.333 245.333h426.667c146.773 0 245.333-98.56 245.333-245.333v-255.998c0-146.773-98.56-245.333-245.333-245.333h-160.853l-181.761-121.178c-12.373-8.107-26.879-12.369-41.385-12.369zM298.667 824.323c-110.080 0-181.333-71.253-181.333-181.333v-256.003c0-110.080 71.253-181.333 181.333-181.333 17.493 0 32-14.507 32-32v-90.88c0-5.547 3.413-8.107 5.547-9.387s6.4-2.56 11.094 0.427l189.866 126.293c5.12 3.413 11.52 5.547 17.92 5.547h170.667c110.080 0 181.333 71.253 181.333 181.333v256.003c0 110.080-71.253 181.333-181.333 181.333h-427.093zM511.991 443.311c-17.493 0-32 14.507-32 32v8.96c0 49.493 36.267 73.814 49.92 83.2 15.787 10.667 20.907 17.92 20.907 29.013 0 21.333-17.493 38.828-38.827 38.828s-38.827-17.495-38.827-38.828c0-17.493-14.507-32-32-32s-31.998 14.507-31.998 32c0 56.747 46.078 102.828 102.825 102.828s102.827-46.082 102.827-102.828c0-48.64-35.84-72.96-49.067-81.92-16.64-11.093-21.76-18.347-21.76-30.293v-8.96c0-17.92-14.507-32-32-32zM512 337.062c-17.92 0-32 14.507-32 32s14.507 32 32 32c17.493 0 32-14.507 32-32s-14.080-32-32-32z" />
</svg>