<?xml version='1.0' encoding='utf-8'?>
<svg xmlns="http://www.w3.org/2000/svg" viewBox="52.4705000000003 105.38599999999985 918.6140000000001 918.6140000000001">
  <path transform="scale(1,-1) translate(0,-1024)" d="M426.24-11.947c-25.6 0-49.92 12.8-66.56 35.413l-51.199 68.267c0-0.427-2.134 0.853-2.987 0.853h-15.786c-145.92 0-236.374 39.68-236.374 236.373v170.667c0 179.626 109.654 226.56 201.814 234.666 10.24 1.28 22.187 1.707 34.56 1.707h273.066c154.453 0 236.373-81.92 236.373-236.373v-170.667c0-12.373-0.427-24.32-2.133-35.84-7.68-90.88-54.613-200.533-234.24-200.533h-17.067l-52.907-69.12c-16.64-22.613-40.96-35.413-66.56-35.413zM289.707 672c-9.813 0-19.2-0.427-28.16-1.28-98.987-8.533-144.213-62.72-144.213-171.093v-170.667c0-146.347 45.227-172.373 172.374-172.373h17.066c19.2 0 40.96-10.667 52.906-26.027l51.2-68.693c9.387-12.8 21.333-12.8 30.72 0l51.2 68.267c12.373 16.64 32 26.453 52.907 26.453h17.067c108.373 0 162.56 45.653 170.667 142.933 1.28 10.24 1.707 19.627 1.707 29.44v170.667c0 119.040-53.333 172.373-172.373 172.373h-273.066zM426.25 354.564c-23.893 0-42.667 19.2-42.667 42.667s19.2 42.667 42.667 42.667c23.465 0 42.665-19.2 42.665-42.667s-18.773-42.667-42.665-42.667zM562.752 354.564c-23.893 0-42.667 19.2-42.667 42.667s19.2 42.667 42.667 42.667c23.467 0 42.667-19.2 42.667-42.667s-19.2-42.667-42.667-42.667zM290.167 354.564c-23.893 0-42.667 19.2-42.667 42.667s19.2 42.667 42.667 42.667c23.467 0 42.667-19.2 42.667-42.667s-19.2-42.667-42.667-42.667zM765.423 264.96c-8.533 0-17.067 3.413-23.040 9.813-6.827 6.827-9.809 16.64-8.529 26.027 1.28 8.96 1.702 18.347 1.702 28.16v170.667c0 119.040-53.329 172.373-172.369 172.373h-273.070c-9.813 0-19.199-0.427-28.159-1.28-9.387-1.28-19.201 2.134-26.028 8.534-6.827 6.827-10.667 16.212-9.814 25.599 7.68 92.16 55.040 201.814 234.665 201.814h273.071c154.453 0 236.369-81.92 236.369-236.374v-170.666c0-179.627-109.649-226.56-201.809-234.667-1.28 0-2.138 0-2.991 0zM295.239 736h267.517c154.453 0 236.378-81.92 236.378-236.373v-165.12c72.533 17.92 106.667 71.253 106.667 165.12v170.666c0 119.040-53.338 172.374-172.378 172.374h-273.062c-93.869 0-146.775-34.133-165.122-106.667z" />
</svg>