<?xml version='1.0' encoding='utf-8'?>
<svg xmlns="http://www.w3.org/2000/svg" viewBox="53.33299999999997 106.66599999999949 917.3340000000005 917.3340000000005">
  <path transform="scale(1,-1) translate(0,-1024)" d="M85.333 544c-17.493 0-32 14.507-32 32v106.667c0 123.307 100.693 224 224 224h106.667c17.493 0 32-14.507 32-32s-14.507-32-32-32h-106.667c-88.32 0-160-71.68-160-160v-106.667c0-17.493-14.507-32-32-32zM938.667 544c-17.493 0-32 14.507-32 32v106.667c0 88.32-71.68 160-160 160h-106.667c-17.493 0-32 14.507-32 32s14.507 32 32 32h106.667c123.307 0 224-100.693 224-224v-106.667c0-17.493-14.507-32-32-32zM746.667-10.667h-64c-17.493 0-32 14.507-32 32s14.507 32 32 32h64c88.32 0 160 71.68 160 160v64c0 17.493 14.507 32 32 32s32-14.507 32-32v-64c0-123.307-100.693-224-224-224zM384-10.667h-106.667c-123.307 0-224 100.693-224 224v106.667c0 17.493 14.507 32 32 32s32-14.507 32-32v-106.667c0-88.32 71.68-160 160-160h106.667c17.493 0 32-14.507 32-32s-14.507-32-32-32z" />
</svg>