<?xml version='1.0' encoding='utf-8'?>
<svg xmlns="http://www.w3.org/2000/svg" viewBox="96.0 192.0 832.0 832.0">
  <path transform="scale(1,-1) translate(0,-1024)" d="M896 544c-17.493 0-32 14.507-32 32v224h-224c-17.493 0-32 14.507-32 32s14.507 32 32 32h256c17.493 0 32-14.507 32-32v-256c0-17.493-14.507-32-32-32zM384 32h-256c-17.493 0-32 14.507-32 32v256c0 17.493 14.507 32 32 32s32-14.507 32-32v-224h224c17.493 0 32-14.507 32-32s-14.507-32-32-32zM575.979 480.004c-8.107 0-16.213 2.987-22.613 9.387-12.373 12.373-12.373 32.853 0 45.225l320 320c12.373 12.373 32.853 12.373 45.227 0s12.373-32.853 0-45.227l-320-319.998c-6.4-6.4-14.507-9.387-22.613-9.387zM127.977 32.004c-8.107 0-16.213 2.987-22.613 9.387-12.373 12.373-12.373 32.853 0 45.227l320 320c12.375 12.373 32.855 12.373 45.229 0s12.373-32.853 0-45.227l-320.002-320c-6.4-6.4-14.507-9.387-22.613-9.387z" />
</svg>