<?xml version='1.0' encoding='utf-8'?>
<svg xmlns="http://www.w3.org/2000/svg" viewBox="53.33300000000003 160.00049999999982 917.333 917.333">
  <path transform="scale(1,-1) translate(0,-1024)" d="M725.333 74.667h-213.333c-17.493 0-32 14.507-32 32s14.507 32 32 32h213.333c122.027 0 181.333 59.307 181.333 181.333v256c0 122.027-59.307 181.333-181.333 181.333h-426.667c-122.027 0-181.333-59.307-181.333-181.333v-85.333c0-17.493-14.507-32-32-32s-32 14.507-32 32v85.333c0 155.733 89.6 245.333 245.333 245.333h426.667c155.733 0 245.333-89.6 245.333-245.333v-256c0-155.733-89.6-245.333-245.333-245.333zM512 309.333c-76.373 0-138.667 62.293-138.667 138.667s62.293 138.667 138.667 138.667c76.373 0 138.667-62.293 138.667-138.667s-62.293-138.667-138.667-138.667zM512 522.667c-40.96 0-74.667-33.707-74.667-74.667s33.707-74.667 74.667-74.667c40.96 0 74.667 33.707 74.667 74.667s-33.707 74.667-74.667 74.667zM789.333 309.333c-17.493 0-32 14.507-32 32v213.333c0 17.493 14.507 32 32 32s32-14.507 32-32v-213.333c0-17.493-14.507-32-32-32zM362.667 162.56c-17.493 0-32 14.507-32 32v54.613c0 9.387-7.679 17.493-17.492 17.493h-227.841c-17.493 0-32 14.507-32 32s14.507 32 32 32h227.841c44.8 0 81.492-36.693 81.492-81.493v-54.613c0-17.493-14.507-32-32-32zM137.363 214.626c-8.107 0-16.212 2.987-22.612 9.387l-52.055 52.049c-12.373 12.373-12.373 32.858 0 45.231l52.055 52.053c12.373 12.373 32.853 12.373 45.227 0s12.373-32.853 0-45.227l-29.44-29.44 29.44-29.44c12.373-12.373 12.373-32.853 0-45.227-6.4-6.4-14.508-9.387-22.615-9.387zM362.667 41.395h-227.841c-44.8 0-81.492 36.693-81.492 81.493v54.613c0 17.493 14.507 32 32 32s32-14.507 32-32v-54.613c0-9.387 7.679-17.493 17.492-17.493h227.841c17.493 0 32-14.507 32-32s-14.507-32-32-32zM310.561-10.667c-8.107 0-16.215 2.987-22.615 9.387-12.373 12.373-12.373 32.858 0 45.231l29.44 29.436-29.44 29.44c-12.373 12.373-12.373 32.853 0 45.227s32.853 12.373 45.227 0l52.055-52.053c12.373-12.373 12.373-32.853 0-45.227l-52.055-52.053c-5.973-6.4-14.505-9.387-22.612-9.387z" />
</svg>