<?xml version='1.0' encoding='utf-8'?>
<svg xmlns="http://www.w3.org/2000/svg" viewBox="53.32950000000005 106.6579999999999 917.3420000000001 917.3420000000001">
  <path transform="scale(1,-1) translate(0,-1024)" d="M772.267 202.667h-520.534c-98.987 0-155.733 56.747-155.733 155.733v516.267c0 17.493 14.507 32 32 32h768c17.493 0 32-14.507 32-32v-516.267c0-98.987-56.747-155.733-155.733-155.733zM160 842.667v-484.267c0-63.573 28.16-91.733 91.733-91.733h520.107c63.573 0 91.733 28.16 91.733 91.733v484.267h-703.573zM938.667 842.667h-853.333c-17.493 0-32 14.507-32 32s14.507 32 32 32h853.333c17.493 0 32-14.507 32-32s-14.507-32-32-32zM341.345-10.667c-11.947 0-23.041 6.4-28.588 17.493-8.107 15.787-1.705 34.987 14.508 43.093l152.748 76.373v108.373c0 17.493 14.507 32 32 32s32-14.507 32-32v-128c0-11.947-6.827-23.040-17.92-28.587l-170.669-85.333c-4.267-2.133-9.386-3.413-14.079-3.413zM682.662-10.675c-4.693 0-9.809 1.28-14.076 3.413l-170.667 85.333c-15.787 8.107-22.191 27.307-14.511 43.093 8.107 15.787 27.307 22.187 43.093 14.507l170.667-85.333c15.787-8.107 22.187-27.307 14.507-43.093-5.973-11.52-17.493-17.92-29.013-17.92zM319.997 458.658c-8.96 0-18.346 3.84-24.746 11.52-11.52 13.653-9.388 33.707 4.266 45.227l134.399 112.214c12.373 10.24 28.16 14.507 43.093 11.947 15.36-2.56 28.587-11.946 36.693-25.599l44.8-74.667 125.013 104.105c13.653 11.093 33.707 9.388 45.227-4.265s9.387-33.707-4.267-45.227l-134.4-112.215c-12.373-10.24-28.16-14.507-43.093-11.947-15.36 2.56-28.587 11.947-36.693 25.6l-44.8 74.667-125.012-104.107c-5.973-4.693-13.227-7.253-20.48-7.253z" />
</svg>