<?xml version='1.0' encoding='utf-8'?>
<svg xmlns="http://www.w3.org/2000/svg" viewBox="53.33300000000003 106.66700000000003 917.333 917.333">
  <path transform="scale(1,-1) translate(0,-1024)" d="M725.333 32h-426.667c-188.16 0-245.333 57.173-245.333 245.333v341.333c0 188.16 57.173 245.333 245.333 245.333h426.667c188.16 0 245.333-57.173 245.333-245.333v-341.333c0-188.16-57.173-245.333-245.333-245.333zM298.667 800c-152.747 0-181.333-29.013-181.333-181.333v-341.333c0-152.32 28.587-181.333 181.333-181.333h426.667c152.747 0 181.333 29.013 181.333 181.333v341.333c0 152.32-28.587 181.333-181.333 181.333h-426.667zM810.667 586.667h-213.333c-17.493 0-32 14.507-32 32s14.507 32 32 32h213.333c17.493 0 32-14.507 32-32s-14.507-32-32-32zM810.667 416h-170.667c-17.493 0-32 14.507-32 32s14.507 32 32 32h170.667c17.493 0 32-14.507 32-32s-14.507-32-32-32zM810.667 245.333h-85.333c-17.493 0-32 14.507-32 32s14.507 32 32 32h85.333c17.493 0 32-14.507 32-32s-14.507-32-32-32zM362.685 446.298c-60.16 0-109.227 49.067-109.227 109.226s49.067 109.227 109.227 109.227c60.16 0 109.225-49.067 109.225-109.227s-49.065-109.226-109.225-109.226zM362.685 600.75c-24.747 0-45.227-20.48-45.227-45.227s20.48-45.226 45.227-45.226c24.747 0 45.227 20.48 45.227 45.226s-20.48 45.227-45.227 45.227zM511.996 231.262c-16.213 0-30.293 12.373-32 29.013-4.693 46.080-41.813 83.2-88.32 87.467-19.627 1.707-39.253 1.707-58.88 0-46.507-4.267-83.627-40.96-88.32-87.467-1.707-17.493-17.493-30.72-34.987-28.587-17.493 1.707-30.293 17.493-28.587 34.987 7.68 76.8 68.693 137.813 145.92 144.64 23.467 2.133 47.36 2.133 70.827 0 76.8-7.253 138.24-68.267 145.92-144.64 1.707-17.493-11.093-33.28-28.587-34.987-0.853-0.427-2.133-0.427-2.987-0.427z" />
</svg>