<?xml version='1.0' encoding='utf-8'?>
<svg xmlns="http://www.w3.org/2000/svg" viewBox="53.97050000000024 115.20100000000002 908.799 908.799">
  <path transform="scale(1,-1) translate(0,-1024)" d="M390.85 464.213c-1.28 0-2.133 0-3.413 0-2.133 0.427-5.12 0.427-7.68 0-123.733 3.84-217.173 101.12-217.173 221.013 0 122.027 99.413 221.44 221.44 221.44 122.025 0 221.438-99.413 221.438-221.44-0.427-119.893-94.293-217.173-213.331-221.013-0.427 0-0.853 0-1.28 0zM384.023 842.667c-86.613 0-157.44-70.827-157.44-157.44 0-85.333 66.56-154.027 151.467-157.013 2.56 0.427 8.107 0.427 13.653 0 83.625 3.84 149.331 72.533 149.758 157.013 0 86.613-70.827 157.44-157.438 157.44zM705.724 458.667c-1.28 0-2.56 0-3.84 0.427-17.493-1.707-35.413 10.667-37.12 28.16s8.96 33.28 26.453 35.413c5.12 0.427 10.667 0.427 15.36 0.427 62.293 3.413 110.933 54.613 110.933 117.333 0 64.853-52.48 117.333-117.333 117.333-17.493-0.427-32 14.080-32 31.573s14.507 32 32 32c99.84 0 181.333-81.493 181.333-181.333 0-98.133-76.8-177.493-174.507-181.333-0.427 0-0.853 0-1.28 0zM391.237-2.133c-83.627 0-167.68 21.333-231.253 64-59.307 39.253-91.733 93.013-91.733 151.467s32.427 112.64 91.733 152.32c128 84.907 335.36 84.907 462.506 0 58.88-39.253 91.733-93.013 91.733-151.467s-32.427-112.64-91.733-152.32c-64-42.667-147.627-64-231.253-64zM195.397 311.893c-40.96-27.307-63.147-62.293-63.147-98.987 0-36.267 22.613-71.253 63.147-98.133 106.24-71.253 285.44-71.253 391.68 0 40.96 27.307 63.147 62.293 63.147 98.987 0 36.267-22.613 71.253-63.147 98.133-106.24 70.827-285.44 70.827-391.68 0zM782.515 74.667c-14.933 0-28.16 10.24-31.147 25.6-3.413 17.493 7.68 34.133 24.747 37.973 26.88 5.547 51.627 16.213 70.827 31.147 24.32 18.347 37.547 41.387 37.547 65.707s-13.227 47.36-37.12 65.28c-18.773 14.507-42.24 24.747-69.973 31.147-17.067 3.84-28.16 20.907-24.32 38.4 3.84 17.067 20.907 28.16 38.4 24.32 36.693-8.107 68.693-22.613 94.72-42.667 39.68-29.867 62.293-72.107 62.293-116.48s-23.040-86.613-62.72-116.907c-26.453-20.48-59.733-35.413-96.427-42.667-2.56-0.853-4.693-0.853-6.827-0.853z" />
</svg>