<?xml version='1.0' encoding='utf-8'?>
<svg xmlns="http://www.w3.org/2000/svg" viewBox="53.331999999999994 116.9070000000001 917.334 917.334">
  <path transform="scale(1,-1) translate(0,-1024)" d="M620.8 3.413c-14.080 0-27.307 9.387-31.147 23.893-4.693 17.067 5.547 34.56 23.040 39.253 173.227 45.653 293.973 202.667 293.973 381.867 0 217.6-177.067 394.667-394.667 394.667-184.747 0-305.92-107.947-362.667-173.227h125.44c17.493 0 32-14.507 32-32s-14.080-32.427-32-32.427h-189.013c-2.133 0-5.973 0.427-8.96 1.28-3.84 1.28-7.253 2.987-10.24 5.12-3.84 2.56-6.827 5.973-8.96 9.813s-3.84 8.533-4.267 13.227c0 1.28 0 2.133 0 3.413v193.707c0 17.493 14.507 32 32 32s32-14.507 32-32v-101.973c69.547 74.667 200.533 176.64 394.667 176.64 253.013 0 458.667-205.653 458.667-458.667 0-208.213-140.373-390.827-341.76-443.733-2.56-0.427-5.547-0.853-8.107-0.853zM481.707-9.813c-0.853 0-1.707 0.427-2.133 0.427-46.080 2.987-91.307 13.227-133.973 29.867-12.373 4.693-20.907 17.067-20.48 30.293 0 3.84 0.853 7.68 2.133 11.093 6.4 16.213 25.6 24.32 41.387 18.347 37.12-14.507 75.947-23.040 115.2-26.027 16.64-0.853 29.867-15.36 29.867-32.427l-0.427-1.707c-0.853-16.64-14.933-29.867-31.573-29.867zM246.613 81.92c-7.253 0-14.080 2.56-20.053 6.827-35.84 29.013-67.413 62.72-93.013 100.267-3.84 5.547-5.973 11.52-5.973 17.92 0 10.667 5.12 20.48 14.080 26.453 14.080 9.813 34.56 5.973 44.373-7.68 0-0.427 0-0.427 0-0.427 0.427-0.427 0.853-1.28 1.28-1.707 22.187-32 49.067-60.587 79.36-84.48 7.253-5.973 11.947-14.933 11.947-24.747 0-7.253-2.133-14.507-6.827-20.48-6.4-7.68-15.36-11.947-25.173-11.947zM104.107 290.133c-14.080 0-26.453 8.96-30.293 22.187-13.653 43.947-20.48 89.6-20.48 135.68v0.427c0.427 17.493 14.507 31.573 32 31.573s32-14.507 32-32c0-40.107 5.973-79.36 17.493-116.48 0.853-3.413 1.28-6.4 1.28-9.813 0-13.653-8.96-26.027-22.613-30.293-2.987-0.853-5.973-1.28-9.387-1.28z" />
</svg>