<?xml version='1.0' encoding='utf-8'?>
<svg xmlns="http://www.w3.org/2000/svg" viewBox="53.38712500000037 117.43725000000012 917.23375 917.23375">
  <path transform="scale(1,-1) translate(0,-1024)" d="M871.258 438.622c-17.493 0-32 14.507-32 32v141.649c0 52.907-43.093 96-96 96h-590.508c-17.493 0-32 14.507-32 32s14.507 32 32 32h590.508c88.32 0 160-71.68 160-160v-141.649c0-17.92-14.507-32-32-32zM287.577 573.014c-8.107 0-16.213 2.988-22.613 9.388l-134.827 134.826c-5.973 5.973-9.387 14.081-9.387 22.615s3.413 16.638 9.387 22.612l134.827 134.828c12.373 12.373 32.853 12.373 45.227 0s12.373-32.856 0-45.229l-112.212-112.211 112.212-112.214c12.373-12.373 12.373-32.853 0-45.227-6.4-5.973-14.507-9.388-22.613-9.388zM871.258 124.16h-590.508c-88.32 0-160 71.68-160 160v141.653c0 17.493 14.507 32 32 32s32-14.507 32-32v-141.653c0-52.907 43.093-96 96-96h590.508c17.493 0 32-14.507 32-32s-14.507-32-32-32zM736.393-10.671c-8.107 0-16.213 2.987-22.613 9.387-12.373 12.373-12.373 32.853 0 45.227l112.213 112.213-112.213 112.213c-12.373 12.373-12.373 32.853 0 45.227s32.853 12.373 45.227 0l134.827-134.827c5.973-5.973 9.387-14.080 9.387-22.613s-3.413-16.64-9.387-22.613l-134.827-134.827c-5.973-6.4-14.080-9.387-22.613-9.387z" />
</svg>