<?xml version='1.0' encoding='utf-8'?>
<svg xmlns="http://www.w3.org/2000/svg" viewBox="53.33450000000022 -10.66700000000003 917.333 917.333">
  <path transform="scale(1,-1) translate(0,-1024)" d="M512-10.667c-33.28 0-65.707 17.067-87.893 46.933l-43.093 57.6c-8.96 11.947-20.907 18.773-33.707 19.627-12.8 0.427-25.6-5.12-35.84-15.787l-24.32 21.76 23.467-21.76c-61.44-65.707-108.8-60.587-131.413-51.627-23.040 8.96-61.867 38.4-61.867 133.12v480.427c0 189.44 54.613 247.040 233.387 247.040h322.56c178.773 0 233.387-57.6 233.387-247.040v-480.427c0-94.293-38.827-123.733-61.867-133.12-22.613-8.96-69.547-14.080-131.413 51.627-10.24 11.093-23.040 17.067-36.267 15.787-12.8-0.853-25.173-7.68-34.133-19.627l-43.093-57.6c-22.187-29.867-54.613-46.933-87.893-46.933zM344.747 177.92c1.707 0 3.84 0 5.547 0 31.573-1.707 61.44-18.347 81.493-45.227l43.093-57.6c20.907-27.733 52.907-27.733 73.813 0l43.093 57.6c20.48 26.88 49.92 43.52 81.92 45.227 31.573 1.707 63.147-11.52 86.187-36.267 32.427-34.56 53.333-38.827 61.013-35.84 10.24 4.267 21.333 29.013 21.333 73.387v480.427c0 154.027-26.88 183.040-169.387 183.040h-322.133c-142.507 0-169.387-29.013-169.387-183.040v-480.427c0-44.8 11.093-69.547 21.333-73.387 7.253-2.987 28.587 1.28 61.013 35.84 23.040 23.467 51.627 36.267 81.067 36.267zM692.501 458.667h-234.667c-17.493 0-32.001 14.507-32.001 32s14.508 32 32.001 32h234.667c17.493 0 32-14.507 32-32s-14.507-32-32-32zM692.501 629.333h-234.667c-17.493 0-32.001 14.507-32.001 32s14.508 32 32.001 32h234.667c17.493 0 32-14.507 32-32s-14.507-32-32-32zM331.917 618.667c-23.467 0-42.667 19.2-42.667 42.667s19.2 42.667 42.667 42.667c23.467 0 42.667-19.2 42.667-42.667s-19.2-42.667-42.667-42.667zM331.917 448c-23.467 0-42.667 19.2-42.667 42.667s19.2 42.667 42.667 42.667c23.467 0 42.667-19.2 42.667-42.667s-19.2-42.667-42.667-42.667z" />
</svg>