<?xml version='1.0' encoding='utf-8'?>
<svg xmlns="http://www.w3.org/2000/svg" viewBox="53.546999999999855 117.7609999999998 916.9060000000003 916.9060000000003">
  <path transform="scale(1,-1) translate(0,-1024)" d="M512-10.667c-29.867 0-60.16 11.52-82.773 34.133l-72.96 72.107c-18.347 17.92-42.241 27.733-67.841 27.733h-32.426c-88.32 0-160 71.253-160 158.72v465.494c0 87.467 71.68 158.719 160 158.719h512c88.32 0 160-71.252 160-158.719v-465.494c0-87.467-71.68-158.72-160-158.72h-32.427c-25.6 0-49.92-9.813-67.84-27.733l-72.96-72.107c-22.613-22.613-52.907-34.133-82.773-34.133zM256 842.667c-52.907 0-96-42.665-96-94.719v-465.495c0-52.48 43.093-94.72 96-94.72h32.426c42.667 0 82.774-16.636 113.067-46.502l72.96-72.111c20.907-20.48 54.613-20.48 75.52 0l72.96 72.111c30.293 29.867 70.4 46.502 113.067 46.502h32c52.907 0 96 42.667 96 94.72v465.495c0 52.48-43.093 94.719-96 94.719h-512zM442.889 340.907h-114.345c-18.773 0-36.267 8.964-47.36 24.324-10.667 14.507-13.227 32.422-8.107 49.489 14.933 45.653 51.627 70.4 84.053 92.587 34.133 23.040 53.333 37.546 53.333 62.292 0 22.187-17.92 40.109-40.107 40.109s-40.106-17.923-40.106-40.109c0-17.493-14.507-32-32-32s-32 14.507-32 32c0 57.173 46.506 104.109 104.106 104.109s104.106-46.509 104.106-104.109c0-60.159-45.227-90.879-81.492-115.626-22.613-15.36-43.948-29.867-54.614-49.067h104.106c17.493 0 32-14.507 32-32s-14.080-32-31.573-32zM684.326 340.911c-17.493 0-32 14.507-32 32v29.44h-83.627c0 0 0 0-0.427 0-20.907 0-40.107 11.089-50.773 29.009-10.667 18.347-10.667 40.964 0 58.884 29.013 49.918 62.72 106.666 93.44 156.16 13.653 21.76 39.68 31.571 64 24.745 24.32-7.253 41.387-29.441 40.96-55.041v-150.183h9.387c17.493 0 32-14.507 32-32s-14.507-32-32-32h-8.96v-29.444c0-17.493-14.080-31.569-32-31.569zM652.326 591.362c-25.173-40.96-51.2-84.905-74.667-125.011h74.667v125.011z" />
</svg>