<?xml version='1.0' encoding='utf-8'?>
<svg xmlns="http://www.w3.org/2000/svg" viewBox="53.33200000000005 117.03215285608798 918.1890000000004 918.1890000000004">
  <path transform="scale(1,-1) translate(0,-1024)" d="M512 288c-88.32 0-160 71.68-160 160s71.68 160 160 160c88.32 0 160-71.68 160-160s-71.68-160-160-160zM512 544c-52.907 0-96-43.093-96-96s43.093-96 96-96c52.907 0 96 43.093 96 96s-43.093 96-96 96zM648.96 13.235c-8.96 0-17.92 1.28-26.88 3.413-26.453 7.253-48.64 23.893-62.72 47.36l-5.12 8.533c-25.173 43.52-59.733 43.52-84.907 0l-4.693-8.107c-14.080-23.893-36.267-40.96-62.72-47.787-26.88-7.253-54.613-3.413-78.080 10.667l-73.387 42.24c-26.027 14.933-44.8 39.253-52.907 68.693-7.68 29.44-3.84 59.733 11.093 85.76 12.373 21.76 15.787 41.387 8.533 53.76s-25.6 19.627-50.773 19.627c-62.293 0-113.067 50.773-113.067 113.067v75.093c0 62.293 50.773 113.067 113.067 113.067 25.173 0 43.52 7.253 50.773 19.627s4.267 32-8.533 53.76c-14.933 26.027-18.773 56.747-11.093 85.76 7.68 29.44 26.453 53.76 52.907 68.693l73.813 42.24c48.213 28.587 111.787 11.947 140.8-37.12l5.12-8.533c25.173-43.52 59.733-43.52 84.907 0l4.693 8.107c29.013 49.493 92.587 66.133 141.227 37.12l73.387-42.24c26.027-14.933 44.8-39.253 52.907-68.693 7.68-29.44 3.84-59.733-11.093-85.76-12.373-21.76-15.787-41.387-8.533-53.76s25.6-19.627 50.773-19.627c62.293 0 113.067-50.773 113.067-113.067v-75.093c0-62.293-50.773-113.067-113.067-113.067-25.173 0-43.52-7.253-50.773-19.627s-4.267-32 8.533-53.76c14.933-26.027 19.2-56.747 11.093-85.76-7.68-29.44-26.453-53.76-52.907-68.693l-73.813-42.24c-16.213-8.96-33.707-13.653-51.627-13.653zM512 171.102c37.973 0 73.387-23.893 97.707-66.133l4.693-8.107c5.12-8.96 13.653-15.36 23.893-17.92s20.48-1.28 29.013 3.84l73.813 42.667c11.093 6.4 19.627 17.067 23.040 29.867s1.707 26.027-4.693 37.12c-24.32 41.813-27.307 84.907-8.533 117.76s57.6 51.627 106.24 51.627c27.307 0 49.067 21.76 49.067 49.067v75.093c0 26.88-21.76 49.067-49.067 49.067-48.64 0-87.467 18.773-106.24 51.627s-15.787 75.947 8.533 117.76c6.4 11.093 8.107 24.32 4.693 37.12s-11.52 23.040-22.613 29.867l-73.813 42.24c-18.347 11.093-42.667 4.693-53.76-14.080l-4.693-8.107c-24.32-42.24-59.733-66.133-97.707-66.133s-73.387 23.893-97.707 66.133l-4.693 8.533c-10.667 17.92-34.56 24.32-52.907 13.653l-73.813-42.667c-11.093-6.4-19.627-17.067-23.040-29.867s-1.707-26.027 4.693-37.12c24.32-41.813 27.307-84.907 8.533-117.76s-57.6-51.627-106.24-51.627c-27.307 0-49.067-21.76-49.067-49.067v-75.093c0-26.88 21.76-49.067 49.067-49.067 48.64 0 87.467-18.773 106.24-51.627s15.787-75.947-8.533-117.76c-6.4-11.093-8.107-24.32-4.693-37.12s11.52-23.040 22.613-29.867l73.813-42.24c8.96-5.547 19.627-6.827 29.44-4.267 10.24 2.56 18.773 9.387 24.32 18.347l4.693 8.107c24.32 41.813 59.733 66.133 97.707 66.133z" />
</svg>