<?xml version='1.0' encoding='utf-8'?>
<svg xmlns="http://www.w3.org/2000/svg" viewBox="53.06012499999997 -10.670999999999992 917.86875 917.86875">
  <path transform="scale(1,-1) translate(0,-1024)" d="M511.991-10.671c-10.24 0-20.476 1.28-30.289 4.267-221.442 61.013-381.869 267.951-381.869 492.378v187.305c0 47.787 34.56 99.411 78.934 117.758l237.654 97.281c61.868 25.173 129.704 25.173 191.144 0l237.653-97.281c44.373-18.347 78.938-69.971 78.938-117.758v-187.305c0-224-160.858-430.938-381.871-492.378-9.813-2.987-20.053-4.267-30.293-4.267zM511.991 842.664c-24.32 0-48.213-4.694-71.253-14.080l-237.651-97.279c-20.48-8.533-39.254-36.267-39.254-58.453v-187.309c0-195.84 140.8-376.747 334.932-430.507 8.533-2.56 17.92-2.56 26.453 0 194.133 53.76 334.938 234.667 334.938 430.507v187.309c0 22.187-18.778 49.92-39.258 58.453l-237.649 97.279c-23.040 9.387-46.938 14.080-71.258 14.080zM512 394.667c-64.853 0-117.333 52.48-117.333 117.333s52.48 117.333 117.333 117.333c64.853 0 117.333-52.48 117.333-117.333s-52.48-117.333-117.333-117.333zM512 565.333c-29.44 0-53.333-23.893-53.333-53.333s23.893-53.333 53.333-53.333c29.44 0 53.333 23.893 53.333 53.333s-23.893 53.333-53.333 53.333zM512 266.667c-17.493 0-32 14.507-32 32v128c0 17.493 14.507 32 32 32s32-14.507 32-32v-128c0-17.493-14.507-32-32-32z" />
</svg>