<?xml version='1.0' encoding='utf-8'?>
<svg xmlns="http://www.w3.org/2000/svg" viewBox="53.33300000000003 117.33299999999912 917.3340000000009 917.3340000000009">
  <path transform="scale(1,-1) translate(0,-1024)" d="M640-10.667h-256c-231.68 0-330.667 98.987-330.667 330.667v256c0 231.68 98.987 330.667 330.667 330.667h256c231.68 0 330.667-98.987 330.667-330.667v-256c0-231.68-98.987-330.667-330.667-330.667zM384 842.667c-196.693 0-266.667-69.973-266.667-266.667v-256c0-196.693 69.973-266.667 266.667-266.667h256c196.693 0 266.667 69.973 266.667 266.667v256c0 196.693-69.973 266.667-266.667 266.667h-256zM664.751 138.662c-17.493 0-32 14.507-32 32v166.4c0 17.493 14.507 32 32 32s32-14.507 32-32v-166.4c0-17.493-14.507-32-32-32zM664.751 610.133c-17.493 0-32 14.507-32 32v83.2c0 17.493 14.507 32 32 32s32-14.507 32-32v-83.2c0-17.493-14.507-32-32-32zM664.768 388.258c-78.933 0-142.933 64-142.933 142.933s64 142.933 142.933 142.933c78.933 0 142.933-64 142.933-142.933s-64.427-142.933-142.933-142.933zM664.768 610.125c-43.52 0-78.933-35.413-78.933-78.933s35.413-78.933 78.933-78.933c43.52 0 78.933 35.413 78.933 78.933s-35.84 78.933-78.933 78.933zM359.25 138.675c-17.493 0-32 14.507-32 32v83.2c0 17.493 14.507 32 32 32s32-14.507 32-32v-83.2c0-17.493-14.080-32-32-32zM359.25 526.933c-17.493 0-32 14.507-32 32v166.4c0 17.493 14.507 32 32 32s32-14.507 32-32v-166.4c0-17.493-14.080-32-32-32zM359.267 221.862c-78.933 0-142.933 64-142.933 142.933s64 142.933 142.933 142.933c78.933 0 142.933-64 142.933-142.933s-64-142.933-142.933-142.933zM359.267 443.729c-43.52 0-78.933-35.413-78.933-78.933s35.413-78.933 78.933-78.933c43.52 0 78.933 35.413 78.933 78.933s-34.986 78.933-78.933 78.933z" />
</svg>