<?xml version='1.0' encoding='utf-8'?>
<svg xmlns="http://www.w3.org/2000/svg" viewBox="53.33300000000003 -10.667000000000087 917.3340000000004 917.3340000000004">
  <path transform="scale(1,-1) translate(0,-1024)" d="M85.333 544c-17.493 0-32 14.507-32 32v106.667c0 123.733 100.693 224 224 224h106.667c17.493 0 32-14.507 32-32s-14.507-32-32-32h-106.667c-88.32 0-160-71.68-160-160v-106.667c0-17.493-14.507-32-32-32zM938.667 544c-17.493 0-32 14.507-32 32v106.667c0 88.32-71.68 160-160 160h-106.667c-17.493 0-32 14.507-32 32s14.507 32 32 32h106.667c123.307 0 224-100.267 224-224v-106.667c0-17.493-14.507-32-32-32zM746.667-10.667h-64c-17.493 0-32 14.507-32 32s14.507 32 32 32h64c88.32 0 160 71.68 160 160v64c0 17.493 14.507 32 32 32s32-14.507 32-32v-64c0-123.733-100.693-224-224-224zM384-10.667h-106.667c-123.307 0-224 100.267-224 224v106.667c0 17.493 14.507 32 32 32s32-14.507 32-32v-106.667c0-88.32 71.68-160 160-160h106.667c17.493 0 32-14.507 32-32s-14.507-32-32-32zM362.667 458.667c-76.373 0-138.667 62.293-138.667 138.667s62.293 138.667 138.667 138.667c76.373 0 138.667-62.293 138.667-138.667s-62.293-138.667-138.667-138.667zM362.667 672c-40.96 0-74.667-33.707-74.667-74.667s33.707-74.667 74.667-74.667c40.96 0 74.667 33.707 74.667 74.667s-33.707 74.667-74.667 74.667zM320 160c-52.907 0-96 43.093-96 96s43.093 96 96 96c52.907 0 96-43.093 96-96s-43.093-96-96-96zM320 288c-17.493 0-32-14.507-32-32s14.507-32 32-32c17.493 0 32 14.507 32 32s-14.507 32-32 32zM704 544c-52.907 0-96 43.093-96 96s43.093 96 96 96c52.907 0 96-43.093 96-96s-43.093-96-96-96zM704 672c-17.493 0-32-14.507-32-32s14.507-32 32-32c17.493 0 32 14.507 32 32s-14.507 32-32 32zM661.333 160c-76.373 0-138.667 62.293-138.667 138.667s62.293 138.667 138.667 138.667c76.373 0 138.667-62.293 138.667-138.667s-62.293-138.667-138.667-138.667zM661.333 373.333c-40.96 0-74.667-33.707-74.667-74.667s33.707-74.667 74.667-74.667c40.96 0 74.667 33.707 74.667 74.667s-33.707 74.667-74.667 74.667z" />
</svg>