<?xml version='1.0' encoding='utf-8'?>
<svg xmlns="http://www.w3.org/2000/svg" viewBox="53.33450000000016 106.66699999999992 917.3330000000001 917.3330000000001">
  <path transform="scale(1,-1) translate(0,-1024)" d="M682.667-10.667h-341.333c-146.773 0-245.333 98.56-245.333 245.333v426.667c0 146.773 98.56 245.333 245.333 245.333h210.347c65.707 0 127.147-25.6 173.653-71.68l130.987-130.987c46.507-46.507 71.68-107.947 71.68-173.653v-295.68c0-146.773-98.56-245.333-245.333-245.333zM341.333 842.667c-110.080 0-181.333-71.253-181.333-181.333v-426.667c0-110.080 71.253-181.333 181.333-181.333h341.333c110.080 0 181.333 71.253 181.333 181.333v295.68c0 48.213-18.773 93.867-53.333 128.427l-130.987 130.56c-34.133 34.133-79.787 53.333-128.427 53.333h-209.92zM597.333 138.667h-170.667c-88.32 0-160 71.68-160 160v128c0 88.32 71.68 160 160 160h170.667c88.32 0 160-71.68 160-160v-128c0-88.32-71.68-160-160-160zM426.667 522.667c-52.907 0-96-43.093-96-96v-128c0-52.907 43.093-96 96-96h170.667c52.907 0 96 43.093 96 96v128c0 52.907-43.093 96-96 96h-170.667zM512 138.667c-17.493 0-32 14.507-32 32v384c0 17.493 14.507 32 32 32s32-14.507 32-32v-384c0-17.493-14.507-32-32-32zM704 330.667h-384c-17.493 0-32 14.507-32 32s14.507 32 32 32h384c17.493 0 32-14.507 32-32s-14.507-32-32-32z" />
</svg>