<?xml version='1.0' encoding='utf-8'?>
<svg xmlns="http://www.w3.org/2000/svg" viewBox="53.33300000000003 -10.666999999999973 917.333 917.333">
  <path transform="scale(1,-1) translate(0,-1024)" d="M725.333 53.333h-426.667c-155.733 0-245.333 89.6-245.333 245.333v298.667c0 155.733 89.6 245.333 245.333 245.333h426.667c155.733 0 245.333-89.6 245.333-245.333v-298.667c0-155.733-89.6-245.333-245.333-245.333zM298.667 778.667c-122.027 0-181.333-59.307-181.333-181.333v-298.667c0-122.027 59.307-181.333 181.333-181.333h426.667c122.027 0 181.333 59.307 181.333 181.333v298.667c0 122.027-59.307 181.333-181.333 181.333h-426.667zM511.949 410.88c-35.84 0-72.107 11.093-99.84 33.707l-133.547 106.668c-13.653 11.093-16.213 31.147-5.12 44.8s31.147 16.213 44.8 5.12l133.546-106.668c32.427-26.027 87.467-26.027 119.893 0l133.547 106.668c13.653 11.093 34.133 8.96 44.8-5.12 11.093-13.653 8.96-34.133-5.12-44.8l-133.547-106.668c-27.307-22.613-63.573-33.707-99.413-33.707z" />
</svg>