<?xml version='1.0' encoding='utf-8'?>
<svg xmlns="http://www.w3.org/2000/svg" viewBox="42.66699999999986 106.66699999999952 936.9600000000004 936.9600000000004">
  <path transform="scale(1,-1) translate(0,-1024)" d="M512 138.667c-170.667 0-309.333 138.667-309.333 309.333s138.667 309.333 309.333 309.333c170.667 0 309.333-138.667 309.333-309.333s-138.667-309.333-309.333-309.333zM512 693.333c-135.253 0-245.333-110.080-245.333-245.333s110.080-245.333 245.333-245.333c135.253 0 245.333 110.080 245.333 245.333s-110.080 245.333-245.333 245.333zM512-19.627c-23.467 0-42.667 17.493-42.667 40.96v3.413c0 23.467 19.2 42.667 42.667 42.667s42.667-19.2 42.667-42.667c0-23.467-19.2-44.373-42.667-44.373zM816.64 100.693c-11.093 0-21.76 4.267-30.293 12.373l-5.547 5.547c-16.64 16.64-16.64 43.52 0 60.16s43.52 16.64 60.16 0l5.547-5.547c16.64-16.64 16.64-43.52 0-60.16-8.107-8.107-18.773-12.373-29.867-12.373zM207.36 100.693c-11.093 0-21.76 4.267-30.293 12.373-16.64 16.64-16.64 43.52 0 60.16l5.547 5.547c16.64 16.64 43.52 16.64 60.16 0s16.64-43.52 0-60.16l-5.547-5.547c-8.107-8.107-19.2-12.373-29.867-12.373zM938.667 405.333h-3.413c-23.467 0-42.667 19.2-42.667 42.667s19.2 42.667 42.667 42.667c23.467 0 44.373-19.2 44.373-42.667s-17.493-42.667-40.96-42.667zM88.747 405.333h-3.413c-23.467 0-42.667 19.2-42.667 42.667s19.2 42.667 42.667 42.667c23.467 0 44.373-19.2 44.373-42.667s-17.493-42.667-40.96-42.667zM811.093 704.427c-11.093 0-21.76 4.267-30.293 12.373-16.64 16.64-16.64 43.52 0 60.16l5.547 5.547c16.64 16.64 43.52 16.64 60.16 0s16.64-43.52 0-60.16l-5.547-5.547c-8.107-8.107-18.773-12.373-29.867-12.373zM212.907 704.427c-11.093 0-21.76 4.267-30.293 12.373l-5.547 5.973c-16.64 16.64-16.64 43.52 0 60.16s43.52 16.64 60.16 0l5.547-5.547c16.64-16.64 16.64-43.52 0-60.16-8.107-8.533-19.2-12.8-29.867-12.8zM512 830.293c-23.467 0-42.667 17.493-42.667 40.96v3.413c0 23.467 19.2 42.667 42.667 42.667s42.667-19.2 42.667-42.667c0-23.467-19.2-44.373-42.667-44.373z" />
</svg>