<?xml version='1.0' encoding='utf-8'?>
<svg xmlns="http://www.w3.org/2000/svg" viewBox="43.3374588936897 106.66499999999996 917.335 917.335">
  <path transform="scale(1,-1) translate(0,-1024)" d="M776.107 202.667h-454.4c-42.24 0-82.773 17.92-111.36 49.067s-43.093 72.96-39.68 115.2l35.413 424.96c1.28 13.227-3.414 26.026-12.374 35.84s-21.333 14.934-34.56 14.934h-73.813c-17.493 0-32 14.507-32 32s14.507 32 32 32h74.24c31.147 0 60.586-13.227 81.492-35.84 11.52-12.8 20.054-27.733 24.747-44.373h532.907c43.093 0 82.773-17.067 111.787-47.787 28.587-31.147 43.093-71.68 39.68-114.773l-23.040-320c-4.693-78.080-72.96-141.227-151.040-141.227zM267.947 762.88l-33.28-401.067c-2.133-24.747 5.973-48.213 22.613-66.56s39.68-28.16 64.426-28.16h454.4c44.373 0 84.48 37.547 87.893 81.92l23.040 320c1.707 25.173-6.4 49.067-23.040 66.56-16.64 17.92-39.68 27.734-64.853 27.734l-531.2-0.427zM693.333-10.667c-46.933 0-85.333 38.4-85.333 85.333s38.4 85.333 85.333 85.333c46.933 0 85.333-38.4 85.333-85.333s-38.4-85.333-85.333-85.333zM693.333 96c-11.947 0-21.333-9.387-21.333-21.333s9.387-21.333 21.333-21.333c11.947 0 21.333 9.387 21.333 21.333s-9.387 21.333-21.333 21.333zM352-10.667c-46.933 0-85.333 38.4-85.333 85.333s38.4 85.333 85.333 85.333c46.933 0 85.333-38.4 85.333-85.333s-38.4-85.333-85.333-85.333zM352 96c-11.947 0-21.333-9.387-21.333-21.333s9.387-21.333 21.333-21.333c11.947 0 21.333 9.387 21.333 21.333s-9.387 21.333-21.333 21.333zM896 586.667h-512c-17.493 0-32 14.507-32 32s14.507 32 32 32h512c17.493 0 32-14.507 32-32s-14.507-32-32-32z" />
</svg>