<?xml version='1.0' encoding='utf-8'?>
<svg xmlns="http://www.w3.org/2000/svg" viewBox="55.499999999999886 -8.314000000000192 913.0590000000004 913.0590000000004">
  <path transform="scale(1,-1) translate(0,-1024)" d="M879.77 402.342c-16.213 0-29.867 12.373-32 28.587-10.24 96.427-62.293 183.893-142.507 239.36-14.507 10.24-17.92 29.867-8.107 44.373 10.24 14.507 30.293 17.92 44.373 8.107 95.573-66.133 157.013-170.24 169.387-285.013 1.707-17.493-10.667-33.28-28.587-35.413-0.427 0-1.707 0-2.56 0zM148.903 400.213c-1.28 0-2.133 0-3.413 0-17.493 2.133-30.293 17.92-28.587 35.413 11.52 114.773 72.533 218.453 166.827 285.44 14.507 10.24 34.56 6.827 44.8-7.68s6.827-34.56-7.68-44.8c-79.36-55.893-130.56-143.36-140.373-239.786-1.28-16.213-15.36-28.587-31.573-28.587zM514.56-4.693c-63.147 0-123.308 14.507-179.628 42.667-15.787 8.107-22.187 27.307-14.080 43.093s27.307 22.187 43.093 14.080c92.161-46.507 203.095-47.36 296.108-2.56 15.787 7.68 34.987 0.853 42.667-14.933s0.853-34.987-14.933-42.667c-54.613-26.453-112.64-39.68-173.227-39.68zM514.53 599.898c-83.2 0-150.613 67.413-150.613 150.613s67.413 150.613 150.613 150.613c83.2 0 150.613-67.413 150.613-150.613s-67.84-150.613-150.613-150.613zM514.53 836.698c-47.787 0-86.613-38.827-86.613-86.613s38.827-86.613 86.613-86.613c47.787 0 86.613 38.827 86.613 86.613s-39.253 86.613-86.613 86.613zM206.113 78.076c-83.2 0-150.613 67.413-150.613 150.613 0 82.773 67.413 150.613 150.613 150.613s150.613-67.413 150.613-150.613c0-82.773-67.413-150.613-150.613-150.613zM206.113 315.302c-47.787 0-86.613-38.827-86.613-86.613s38.827-86.613 86.613-86.613c47.787 0 86.613 38.827 86.613 86.613s-38.827 86.613-86.613 86.613zM817.946 78.076c-83.2 0-150.613 67.413-150.613 150.613 0 82.773 67.413 150.613 150.613 150.613s150.613-67.413 150.613-150.613c-0.427-82.773-67.84-150.613-150.613-150.613zM817.946 315.302c-47.787 0-86.613-38.827-86.613-86.613s38.827-86.613 86.613-86.613c47.787 0 86.613 38.827 86.613 86.613-0.427 47.787-38.827 86.613-86.613 86.613z" />
</svg>