<?xml version='1.0' encoding='utf-8'?>
<svg xmlns="http://www.w3.org/2000/svg" viewBox="58.302875000000085 116.58574999999996 907.41425 907.41425">
  <path transform="scale(1,-1) translate(0,-1024)" d="M512.009-5.538c-28.587 0-57.6 6.4-80.213 19.627l-234.665 135.253c-95.573 64.427-101.547 74.24-101.547 175.36v246.613c0 101.12 5.547 110.933 99.413 174.507l236.372 136.533c44.8 26.027 115.2 26.027 160 0l235.52-135.68c95.573-64.427 101.547-74.24 101.547-175.36v-246.187c0-101.12-5.547-110.933-99.413-174.507l-236.373-136.533c-23.040-13.227-52.053-19.627-80.64-19.627zM512.009 837.555c-17.92 0-35.413-3.413-47.787-10.667l-234.665-135.68c-69.547-46.933-69.547-46.933-69.547-119.893v-246.187c0-72.96 0-72.96 71.253-121.173l232.959-134.4c25.173-14.507 70.827-14.507 96 0l234.667 135.68c69.12 46.933 69.12 46.933 69.12 119.893v246.187c0 72.96 0 72.96-71.253 121.173l-232.96 134.4c-12.373 7.253-29.867 10.667-47.787 10.667zM512 288c-88.32 0-160 71.68-160 160s71.68 160 160 160c88.32 0 160-71.68 160-160s-71.68-160-160-160zM512 544c-52.907 0-96-43.093-96-96s43.093-96 96-96c52.907 0 96 43.093 96 96s-43.093 96-96 96z" />
</svg>