<?xml version='1.0' encoding='utf-8'?>
<svg xmlns="http://www.w3.org/2000/svg" viewBox="53.33299999999997 -10.66700000000003 917.3340000000001 917.3340000000001">
  <path transform="scale(1,-1) translate(0,-1024)" d="M704 117.333h-384c-32 0-55.467 1.28-75.52 4.267-141.653 15.36-169.813 100.267-169.813 241.067v170.667c0 140.8 28.16 225.707 171.093 241.493 18.773 2.56 42.24 3.84 74.24 3.84h384c32 0 55.467-1.28 75.52-4.267 142.080-15.787 169.813-100.267 169.813-241.067v-170.667c0-140.8-28.16-225.707-171.093-241.493-18.773-2.56-42.24-3.84-74.24-3.84zM320 714.667c-29.013 0-49.493-1.28-66.133-3.413-86.613-9.813-115.2-36.693-115.2-177.92v-170.667c0-141.227 28.587-168.107 113.92-177.92 17.92-2.56 38.4-3.413 67.413-3.413h384c29.013 0 49.493 1.28 66.133 3.413 86.613 9.387 115.2 36.693 115.2 177.92v170.667c0 141.227-28.587 168.107-113.92 177.92-17.92 2.56-38.4 3.413-67.413 3.413h-384zM832 842.667h-640c-17.493 0-32 14.507-32 32s14.507 32 32 32h640c17.493 0 32-14.507 32-32s-14.507-32-32-32zM853.333-10.667h-640c-17.493 0-32 14.507-32 32s14.507 32 32 32h640c17.493 0 32-14.507 32-32s-14.507-32-32-32z" />
</svg>