<?xml version='1.0' encoding='utf-8'?>
<svg xmlns="http://www.w3.org/2000/svg" viewBox="53.33299999999997 117.33299999999997 917.3340000000001 917.3340000000001">
  <path transform="scale(1,-1) translate(0,-1024)" d="M597.333 10.667h-170.667c-140.8 0-225.707 28.16-241.493 171.093-2.56 19.2-3.84 42.24-3.84 74.24v384c0 32 1.28 55.467 4.267 75.52 15.36 141.653 100.267 169.813 241.067 169.813h170.667c140.8 0 225.707-28.16 241.493-171.093 2.56-19.2 3.84-42.24 3.84-74.24v-384c0-32-1.28-55.467-4.267-75.52-15.36-141.653-100.267-169.813-241.067-169.813zM426.667 821.333c-141.227 0-168.107-28.587-177.92-113.92-2.133-17.92-3.413-38.4-3.413-67.413v-384c0-29.013 1.28-49.493 3.413-66.133 9.387-86.613 36.693-115.2 177.92-115.2h170.667c141.227 0 168.107 28.587 177.92 113.92 2.56 17.92 3.413 38.4 3.413 67.413v384c0 29.013-1.28 49.493-3.413 66.133-9.387 86.613-36.693 115.2-177.92 115.2h-170.667zM85.333 96c-17.493 0-32 14.507-32 32v640c0 17.493 14.507 32 32 32s32-14.507 32-32v-640c0-17.493-14.507-32-32-32zM938.667 117.333c-17.493 0-32 14.507-32 32v640c0 17.493 14.507 32 32 32s32-14.507 32-32v-640c0-17.493-14.507-32-32-32z" />
</svg>