<?xml version='1.0' encoding='utf-8'?>
<svg xmlns="http://www.w3.org/2000/svg" viewBox="53.10449492010707 117.33299999999991 917.3380000000001 917.3380000000001">
  <path transform="scale(1,-1) translate(0,-1024)" d="M895.987 672.854c-0.853 0-2.133 0-3.413 0-225.707 22.613-450.987 31.147-674.135 8.533l-87.040-8.533c-17.92-1.707-33.707 11.093-35.413 29.013s11.093 33.28 28.587 34.987l87.040 8.533c226.988 23.040 456.961 14.080 687.361-8.533 17.493-1.707 30.293-17.493 28.587-34.987-1.28-16.64-15.36-29.013-31.573-29.013zM362.698 715.947c-1.707 0-3.413 0-5.547 0.427-17.067 2.987-29.013 19.627-26.027 36.693l9.387 55.893c6.827 40.96 16.213 97.707 115.625 97.707h111.787c99.84 0 109.227-58.88 115.627-98.133l9.387-55.467c2.987-17.493-8.96-34.133-26.027-36.693-17.493-2.987-34.133 8.96-36.693 26.027l-9.387 55.467c-5.973 37.12-7.253 44.373-52.48 44.373h-111.787c-45.225 0-46.078-5.973-52.478-43.947l-9.813-55.467c-2.56-15.787-16.213-26.88-31.573-26.88zM648.977-10.671h-273.92c-148.907 0-154.88 82.347-159.573 148.907l-27.733 429.655c-1.28 17.493 12.373 32.853 29.867 34.133 17.92 0.853 32.853-12.373 34.133-29.867l27.733-429.654c4.693-64.853 6.4-89.173 95.573-89.173h273.92c89.6 0 91.307 24.32 95.573 89.173l27.733 429.654c1.28 17.493 16.64 30.72 34.133 29.867 17.493-1.28 31.147-16.213 29.867-34.133l-27.733-429.655c-4.693-66.56-10.667-148.907-159.573-148.907zM582.831 224h-142.080c-17.494 0-32.001 14.507-32.001 32s14.507 32 32.001 32h142.080c17.493 0 32-14.507 32-32s-14.507-32-32-32zM618.667 394.667h-213.333c-17.493 0-32 14.507-32 32s14.507 32 32 32h213.333c17.493 0 32-14.507 32-32s-14.507-32-32-32z" />
</svg>