<?xml version='1.0' encoding='utf-8'?>
<svg xmlns="http://www.w3.org/2000/svg" viewBox="53.32899999999984 117.33199999999988 917.3400000000001 917.3400000000001">
  <path transform="scale(1,-1) translate(0,-1024)" d="M661.333 288c-7.68 0-16.213 0.427-24.32 0.853-15.787 0.853-28.587 13.653-29.867 29.44-9.387 119.040-106.24 215.467-224.854 224.854-15.787 1.28-28.587 14.079-29.44 29.866-0.427 8.107-0.853 16.214-0.853 24.32 0 170.667 138.667 309.333 309.333 309.333s309.333-138.667 309.333-309.333c0-170.667-138.667-309.333-309.333-309.333zM416 603.307c127.147-22.187 229.12-124.16 251.307-251.307 132.693 3.413 239.36 111.787 239.36 245.333 0 135.253-110.080 245.333-245.333 245.333-133.12 0-241.92-106.666-245.333-239.36zM362.667-10.667c-170.667 0-309.333 138.667-309.333 309.333s138.667 309.333 309.333 309.333c7.68 0 16.214-0.426 24.32-0.853 150.613-11.947 272.64-133.974 284.16-283.734 0.427-8.533 0.853-16.64 0.853-24.747 0-170.667-138.667-309.333-309.333-309.333zM362.667 544c-135.253 0-245.333-110.080-245.333-245.333s110.080-245.333 245.333-245.333c135.253 0 245.333 110.080 245.333 245.333 0 6.827-0.427 13.653-0.853 20.053-9.387 118.187-105.813 215.040-224.854 224.427-5.973 0.427-12.8 0.853-19.626 0.853zM128 646.827c-9.813 0-19.2 1.707-28.587 5.547-28.16 11.52-46.080 38.826-46.080 69.12v110.507c0 40.96 33.707 74.667 74.667 74.667h110.507c30.293 0 57.173-17.92 69.12-46.080 11.52-28.16 5.12-60.16-16.213-81.493l-110.507-110.507c-14.507-14.080-33.28-21.76-52.906-21.76zM128 842.667c-5.973 0-10.667-4.693-10.667-10.667v-110.507c0-6.4 4.266-8.96 6.4-9.814 2.56-0.853 7.254-2.132 11.521 2.134l110.507 110.507c4.267 4.267 3.413 8.96 2.133 11.52s-3.84 6.4-9.814 6.4h-110.080v0.427zM895.949-10.671h-110.507c-30.293 0-57.169 17.92-69.116 46.080-11.52 28.16-5.12 60.16 16.213 81.493l110.507 110.507c21.333 21.333 53.333 27.733 81.493 16.213s46.076-38.827 46.076-69.12v-110.507c0-40.96-33.707-74.667-74.667-74.667zM895.522 185.169c-2.133 0-4.693-0.853-7.253-3.413l-110.502-110.502c-4.267-4.267-3.418-8.964-2.138-11.524s3.84-6.4 9.813-6.4h110.507c5.973 0 10.667 4.693 10.667 10.667v110.507c0 6.4-4.267 8.96-6.4 9.813-1.28 0.427-2.987 0.853-4.693 0.853z" />
</svg>