<?xml version='1.0' encoding='utf-8'?>
<svg xmlns="http://www.w3.org/2000/svg" viewBox="53.33300000000003 117.33299999999912 917.3340000000009 917.3340000000009">
  <path transform="scale(1,-1) translate(0,-1024)" d="M640-10.667h-256c-231.68 0-330.667 98.987-330.667 330.667v256c0 231.68 98.987 330.667 330.667 330.667h256c231.68 0 330.667-98.987 330.667-330.667v-256c0-231.68-98.987-330.667-330.667-330.667zM384 842.667c-196.693 0-266.667-69.973-266.667-266.667v-256c0-196.693 69.973-266.667 266.667-266.667h256c196.693 0 266.667 69.973 266.667 266.667v256c0 196.693-69.973 266.667-266.667 266.667h-256zM451.392 295.249c-8.533 0-16.64 3.413-22.613 9.387l-120.749 120.747c-12.373 12.373-12.373 32.853 0 45.227s32.853 12.373 45.227 0l98.135-98.133 219.307 219.307c12.373 12.373 32.853 12.373 45.227 0s12.373-32.853 0-45.227l-241.92-241.92c-5.973-5.973-14.080-9.387-22.613-9.387z" />
</svg>