<?xml version='1.0' encoding='utf-8'?>
<svg xmlns="http://www.w3.org/2000/svg" viewBox="53.74894505419661 107.05294505419602 916.947054945804 916.947054945804">
  <path transform="scale(1,-1) translate(0,-1024)" d="M725.363 74.667h-426.667c-181.333 0-240.64 54.187-244.907 223.147 0 8.533 2.987 17.067 8.96 23.040s14.080 9.813 23.040 9.813c64.427 0 116.907 52.907 116.907 117.333s-52.48 117.333-116.907 117.333c-8.533 0-16.64 3.413-23.040 9.813s-9.387 14.507-8.96 23.040c4.267 168.96 63.573 223.147 244.907 223.147h426.667c188.16 0 245.333-57.173 245.333-245.333v-256c0-188.16-57.173-245.333-245.333-245.333zM119.070 269.653c7.253-108.373 43.947-130.987 179.627-130.987h426.667c152.747 0 181.333 29.013 181.333 181.333v256c0 152.32-28.587 181.333-181.333 181.333h-426.667c-135.68 0-172.373-23.040-179.627-130.987 84.053-16.213 147.627-90.027 147.627-178.347s-63.573-162.133-147.627-178.347zM384 608c-17.493 0-32 14.507-32 32v149.333c0 17.493 14.507 32 32 32s32-14.507 32-32v-149.333c0-17.493-14.507-32-32-32zM384 74.667c-17.493 0-32 14.507-32 32v149.333c0 17.493 14.507 32 32 32s32-14.507 32-32v-149.333c0-17.493-14.507-32-32-32zM556.378 292.262c-10.24 0-20.48 3.413-29.013 9.387-15.36 11.093-23.040 29.867-19.627 48.64l8.96 50.773-37.12 36.267c-13.653 13.227-18.347 32.853-12.8 50.773 5.973 17.92 21.333 31.147 40.107 33.707l51.2 7.68 23.040 46.507c8.533 17.067 25.6 27.733 44.373 27.733 19.2 0 36.267-10.667 44.373-27.733l23.040-46.507 51.2-7.68c18.773-2.56 34.133-15.787 40.107-33.707s0.853-37.547-12.8-50.773l-37.12-36.267 8.96-50.773c3.413-18.773-4.267-37.547-19.627-48.64s-35.413-12.373-52.053-3.84l-45.653 23.893-46.080-23.893c-7.253-3.84-15.36-5.547-23.467-5.547zM544.858 462.929l21.76-21.333c11.947-11.52 17.067-27.733 14.507-43.947l-5.12-29.867 26.88 14.080c14.507 7.68 31.573 7.68 46.080 0l26.88-14.080-5.12 29.867c-2.56 16.64 2.56 32.853 14.507 43.947l21.76 21.333-29.867 4.267c-16.213 2.56-30.293 12.8-37.547 27.307l-13.227 27.307-13.227-27.307c-7.253-14.507-21.333-24.747-37.547-27.307l-30.72-4.267z" />
</svg>