<?xml version='1.0' encoding='utf-8'?>
<svg xmlns="http://www.w3.org/2000/svg" viewBox="53.50551165894325 -10.66700000000003 917.3320000000007 917.3320000000007">
  <path transform="scale(1,-1) translate(0,-1024)" d="M650.231-10.667h-276.479c-80.64 0-139.52 33.707-162.133 91.733-23.467 60.587-1.707 135.68 54.613 186.453l197.972 180.48-197.972 180.48c-56.32 50.773-78.080 125.867-54.613 186.453 22.613 58.453 81.493 91.733 162.133 91.733h276.479c80.64 0 139.52-33.707 162.133-91.733 23.467-60.587 1.707-135.68-54.613-186.453l-197.973-180.48 198.4-180.48c55.893-50.773 78.080-125.867 54.613-186.453-23.040-58.027-81.92-91.733-162.56-91.733zM511.991 404.907l-202.666-184.32c-35.84-32.853-51.627-80.64-37.973-116.053 12.8-32.853 49.067-51.2 102.4-51.2h276.479c53.333 0 89.6 17.92 102.4 51.2 13.653 35.413-1.707 83.2-37.973 116.053l-202.667 184.32zM373.752 842.667c-53.333 0-89.6-17.92-102.4-51.2-13.653-35.413 1.707-83.2 37.973-116.053l202.666-184.32 202.667 184.32c35.84 32.853 51.627 80.64 37.973 116.053-12.8 32.853-49.067 51.2-102.4 51.2h-276.479z" />
</svg>