<?xml version='1.0' encoding='utf-8'?>
<svg xmlns="http://www.w3.org/2000/svg" viewBox="53.333000000000084 -10.667000000000144 917.3340000000003 917.3340000000003">
  <path transform="scale(1,-1) translate(0,-1024)" d="M512-10.667c-253.013 0-458.667 205.653-458.667 458.667s205.653 458.667 458.667 458.667c253.013 0 458.667-205.653 458.667-458.667s-205.653-458.667-458.667-458.667zM512 842.667c-217.6 0-394.667-177.067-394.667-394.667s177.067-394.667 394.667-394.667c217.6 0 394.667 177.067 394.667 394.667s-177.067 394.667-394.667 394.667zM451.392 295.249c-8.533 0-16.64 3.413-22.613 9.387l-120.749 120.747c-12.373 12.373-12.373 32.853 0 45.227s32.853 12.373 45.227 0l98.135-98.133 219.307 219.307c12.373 12.373 32.853 12.373 45.227 0s12.373-32.853 0-45.227l-241.92-241.92c-5.973-5.973-14.080-9.387-22.613-9.387z" />
</svg>