<?xml version='1.0' encoding='utf-8'?>
<svg xmlns="http://www.w3.org/2000/svg" viewBox="53.58175 117.22487499999983 917.5482500000002 917.5482500000002">
  <path transform="scale(1,-1) translate(0,-1024)" d="M460.395 312.747c-8.533 0-16.64 3.413-22.613 9.387l-103.251 103.253c-12.373 12.373-12.373 32.853 0 45.227s32.853 12.373 45.227 0l80.638-80.64 183.467 183.465c12.373 12.373 32.853 12.373 45.227 0s12.373-32.853 0-45.225l-206.080-206.080c-5.973-5.973-14.080-9.387-22.613-9.387zM512.038-10.667c-26.88 0-53.76 8.96-74.667 26.88l-67.415 58.027c-6.827 5.973-23.893 11.947-32.853 11.947h-73.387c-63.147 0-114.347 51.2-114.347 114.347v72.96c0 8.96-5.973 25.6-11.947 32.427l-57.6 67.84c-34.987 41.387-34.987 106.667 0 148.053l57.6 67.84c5.973 6.827 11.947 23.467 11.947 32.427v73.387c0 63.147 51.2 114.347 114.347 114.347h73.813c8.96 0 26.027 6.4 32.853 11.947l67.415 58.027c41.813 35.84 107.093 35.84 148.907 0l67.413-58.027c6.827-5.973 23.893-11.947 32.853-11.947h72.533c63.147 0 114.347-51.2 114.347-114.347v-72.533c0-8.96 6.4-26.027 12.373-32.853l58.027-67.413c35.84-41.813 35.84-107.093 0-148.907l-58.027-67.413c-5.973-6.827-12.373-23.893-12.373-32.853v-72.533c0-63.147-51.2-114.347-114.347-114.347h-72.533c-8.96 0-26.027-6.4-32.853-11.947l-67.413-58.027c-20.907-18.347-47.787-27.307-74.667-27.307zM263.717 745.813c-27.733 0-50.347-22.613-50.347-50.347v-72.96c0-24.32-11.52-55.467-27.307-73.813l-57.6-67.84c-14.933-17.493-14.933-47.787 0-65.28l57.6-67.84c15.787-18.773 27.307-49.493 27.307-73.813v-72.96c0-27.733 22.613-50.347 50.347-50.347h73.813c24.747 0 55.893-11.52 74.667-27.733l67.415-58.027c17.493-14.933 48.213-14.933 65.707 0l67.413 58.027c18.773 15.787 49.92 27.733 74.667 27.733h72.533c27.733 0 50.347 22.613 50.347 50.347v72.533c0 24.747 11.52 55.893 27.733 74.667l58.027 67.413c14.933 17.493 14.933 48.213 0 65.707l-58.027 67.413c-16.213 18.773-27.733 49.92-27.733 74.667v72.107c0 27.733-22.613 50.347-50.347 50.347h-72.533c-24.747 0-55.893 11.52-74.667 27.733l-67.413 58.027c-17.493 14.933-48.213 14.933-65.707 0l-67.415-58.453c-18.773-15.787-50.347-27.307-74.667-27.307h-73.813z" />
</svg>