<?xml version='1.0' encoding='utf-8'?>
<svg xmlns="http://www.w3.org/2000/svg" viewBox="52.91599999999988 149.1279999999996 917.7470000000008 917.7470000000008">
  <path transform="scale(1,-1) translate(0,-1024)" d="M305.911-10.671c-101.547 0-184.745 73.813-184.745 164.693v87.040c0 17.493 14.507 32 32 32s32-14.507 32-32c0-53.333 51.625-93.44 120.745-93.44s120.748 40.107 120.748 93.44c0 17.493 14.506 32 31.999 32s32-14.507 32-32v-87.040c0-90.88-82.773-164.693-184.747-164.693zM196.258 112.209c18.773-34.987 61.014-58.88 109.654-58.88s90.88 24.32 109.654 58.88c-30.293-18.347-67.84-29.013-109.654-29.013s-79.36 10.667-109.654 29.013zM305.911 200.538c-69.973 0-132.692 32-163.839 82.773-13.653 22.187-20.906 48.213-20.906 74.667 0 44.8 19.626 86.613 55.466 117.76 69.12 60.586 188.159 60.584 257.705 0.422 35.84-31.573 55.893-73.382 55.893-118.182 0-26.453-7.253-52.48-20.907-74.667-30.72-50.773-93.44-82.773-163.413-82.773zM305.911 458.671c-33.28 0-63.999-11.093-87.039-31.147-21.76-18.773-33.706-43.52-33.706-69.547 0-14.933 3.838-28.591 11.518-41.391 19.627-32.427 61.44-52.476 109.227-52.476s89.6 20.049 108.8 52.049c7.68 12.373 11.521 26.458 11.521 41.391 0 26.027-11.946 50.773-33.706 69.973-22.613 20.053-53.335 31.147-86.615 31.147zM305.911 83.2c-105.387 0-184.745 67.84-184.745 157.44v117.333c0 90.88 82.772 164.693 184.745 164.693 48.213 0 94.294-16.64 128.853-46.507 35.84-31.573 55.893-73.387 55.893-118.187v-117.333c0-89.6-79.36-157.44-184.747-157.44zM305.911 458.667c-66.56 0-120.745-45.227-120.745-100.693v-117.333c0-53.333 51.625-93.44 120.745-93.44s120.748 40.107 120.748 93.44v117.333c0 26.027-11.946 50.773-33.706 69.973-23.040 19.627-53.762 30.72-87.042 30.72zM812.369 328.525c-64.427 0-119.040 47.787-124.16 109.227-3.413 35.413 9.387 69.973 34.987 95.147 21.333 22.187 51.627 34.56 83.627 34.56h89.173c42.24-1.28 74.667-34.56 74.667-75.52v-87.893c0-40.96-32.427-74.24-73.387-75.52h-84.907zM894.716 503.458h-87.467c-14.933 0-28.587-5.547-38.4-15.787-12.373-11.947-18.347-28.16-16.64-44.373 2.133-28.16 29.44-50.773 60.16-50.773h83.627c5.547 0 10.667 5.12 10.667 11.52v87.893c0 6.4-5.12 11.093-11.947 11.52zM682.675 53.333h-106.667c-17.493 0-32 14.507-32 32s14.507 32 32 32h106.667c110.080 0 181.333 71.253 181.333 181.333v29.867h-51.627c-64.427 0-119.040 47.787-124.16 109.227-3.413 35.413 9.391 69.973 34.991 95.147 21.333 22.186 51.622 34.56 83.622 34.56h56.747v29.867c0 99.84-58.449 168.534-153.169 179.628-10.24 1.707-19.204 1.706-28.164 1.706h-383.999c-10.24 0-20.054-0.853-29.867-2.133-93.867-11.947-151.466-80.214-151.466-179.2v-85.333c0-17.493-14.507-32-32-32s-32 14.507-32 32v85.333c0 131.413 81.068 226.56 206.935 242.346 11.52 1.707 24.745 2.987 38.398 2.987h383.999c10.24 0 23.467-0.427 37.12-2.56 125.867-14.507 208.213-110.080 208.213-242.773v-61.867c0-17.493-14.507-32-32-32h-88.747c-14.933 0-28.582-5.547-38.396-15.787-12.373-11.947-18.351-28.16-16.644-44.373 2.133-28.16 29.444-50.773 60.164-50.773h84.049c17.493 0 32-14.507 32-32v-61.867c0-146.773-98.56-245.333-245.333-245.333z" />
</svg>