<?xml version='1.0' encoding='utf-8'?>
<svg xmlns="http://www.w3.org/2000/svg" viewBox="53.23537500000026 106.45375000000024 917.5462499999998 917.5462499999998">
  <path transform="scale(1,-1) translate(0,-1024)" d="M512 373.333c-17.493 0-32 14.507-32 32v224c0 17.493 14.507 32 32 32s32-14.507 32-32v-224c0-17.493-14.507-32-32-32zM512 224c-11.52 0-22.187 4.267-30.293 12.373-3.84 4.267-6.827 8.96-9.387 14.080-2.133 5.12-2.987 10.667-2.987 16.213 0 11.093 4.693 22.187 12.373 30.293 15.787 15.787 44.8 15.787 60.587 0 7.68-8.107 12.373-19.2 12.373-30.293 0-5.547-1.28-11.093-3.413-16.213s-5.12-9.813-8.96-14.080c-8.107-8.107-18.773-12.373-30.293-12.373zM512.009-10.671c-28.587 0-57.6 7.253-83.2 22.187l-253.441 146.347c-51.2 29.867-83.2 84.907-83.2 144.213v291.84c0 59.307 32 114.347 83.2 144.213l253.441 146.346c51.2 29.867 114.773 29.867 166.4 0l253.44-146.346c51.2-29.867 83.2-84.907 83.2-144.213v-291.84c0-59.307-32-114.347-83.2-144.213l-253.44-146.347c-25.6-14.933-54.613-22.187-83.2-22.187zM512.009 842.662c-17.493 0-35.413-4.693-51.2-13.653l-253.441-146.347c-31.573-18.347-51.2-52.054-51.2-88.747v-291.84c0-36.267 19.627-70.4 51.2-88.747l253.441-146.347c31.573-18.347 70.827-18.347 101.973 0l253.44 146.347c31.573 18.347 51.2 52.053 51.2 88.747v291.84c0 36.267-19.627 70.4-51.2 88.747l-253.44 146.347c-15.36 8.96-33.28 13.653-50.773 13.653z" />
</svg>